# Blender 4.3.2
# www.blender.org
mtllib brick.mtl
o Cube
v 0.450000 0.450000 -0.450000
v 0.450000 -0.500349 -0.450000
v 0.450000 0.450000 0.450000
v 0.450000 -0.500349 0.450000
v -0.450000 0.450000 -0.450000
v -0.450000 -0.500349 -0.450000
v -0.450000 0.450000 0.450000
v -0.450000 -0.500349 0.450000
vn -0.0000 1.0000 -0.0000
vn -0.0000 -0.0000 1.0000
vn -1.0000 -0.0000 -0.0000
vn -0.0000 -1.0000 -0.0000
vn 1.0000 -0.0000 -0.0000
vn -0.0000 -0.0000 -1.0000
vt 0.186198 0.023438
vt 0.186198 0.190104
vt 0.019531 0.190104
vt 0.019531 0.023438
vt 0.186198 0.192708
vt 0.019531 0.192708
vt 0.019531 0.026042
vt 0.186198 0.026042
vt 0.192708 0.194010
vt 0.026042 0.194010
vt 0.026042 0.027344
vt 0.192708 0.027344
vt 0.184896 0.022135
vt 0.184896 0.188802
vt 0.018229 0.188802
vt 0.018229 0.022135
vt 0.186198 0.187500
vt 0.019531 0.187500
vt 0.019531 0.020833
vt 0.186198 0.020833
vt 0.188802 0.191406
vt 0.022135 0.191406
vt 0.022135 0.024740
vt 0.188802 0.024740
s 0
usemtl Material
f 1/1/1 5/2/1 7/3/1 3/4/1
f 4/5/2 3/6/2 7/7/2 8/8/2
f 8/9/3 7/10/3 5/11/3 6/12/3
f 6/13/4 2/14/4 4/15/4 8/16/4
f 2/17/5 1/18/5 3/19/5 4/20/5
f 6/21/6 5/22/6 1/23/6 2/24/6
o Cube.001
v -0.214690 0.046127 0.502582
v -0.214690 0.496127 0.502582
v -0.214690 0.046127 0.052582
v -0.214690 0.496127 0.052582
v 0.500000 0.046127 0.502582
v 0.500000 0.496127 0.502582
v 0.500000 0.046127 0.052582
v 0.500000 0.496127 0.052582
vn -1.0000 -0.0000 -0.0000
vn -0.0000 -0.0000 -1.0000
vn 1.0000 -0.0000 -0.0000
vn -0.0000 -0.0000 1.0000
vn -0.0000 -1.0000 -0.0000
vn -0.0000 1.0000 -0.0000
vt 0.958366 0.923498
vt 0.442599 0.923498
vt 0.442599 0.407731
vt 0.958366 0.407731
vt 0.948522 0.932344
vt 0.432755 0.932344
vt 0.432755 0.416577
vt 0.948522 0.416577
vt 0.943601 0.931346
vt 0.427834 0.931346
vt 0.427834 0.415579
vt 0.943601 0.415579
vt 0.960360 0.940192
vt 0.444593 0.940192
vt 0.444593 0.424425
vt 0.960360 0.424425
vt 0.954441 0.429347
vt 0.954441 0.945114
vt 0.438674 0.945114
vt 0.438674 0.429347
vt 0.963287 0.424425
vt 0.963287 0.940192
vt 0.447520 0.940192
vt 0.447520 0.424425
s 0
f 9/25/7 10/26/7 12/27/7 11/28/7
f 11/29/8 12/30/8 16/31/8 15/32/8
f 15/33/9 16/34/9 14/35/9 13/36/9
f 13/37/10 14/38/10 10/39/10 9/40/10
f 11/41/11 15/42/11 13/43/11 9/44/11
f 16/45/12 12/46/12 10/47/12 14/48/12
o Cube.002
v -0.214690 0.046127 -0.052582
v -0.214690 0.496127 -0.052582
v -0.214690 0.046127 -0.502582
v -0.214690 0.496127 -0.502582
v 0.500000 0.046127 -0.052582
v 0.500000 0.496127 -0.052582
v 0.500000 0.046127 -0.502582
v 0.500000 0.496127 -0.502582
vn -1.0000 -0.0000 -0.0000
vn -0.0000 -0.0000 -1.0000
vn 1.0000 -0.0000 -0.0000
vn -0.0000 -0.0000 1.0000
vn -0.0000 -1.0000 -0.0000
vn -0.0000 1.0000 -0.0000
vt 0.967212 0.948106
vt 0.451444 0.948106
vt 0.451444 0.432338
vt 0.967212 0.432339
vt 0.947525 0.937265
vt 0.431758 0.937265
vt 0.431758 0.421498
vt 0.947525 0.421498
vt 0.947525 0.926425
vt 0.431758 0.926425
vt 0.431758 0.410658
vt 0.947525 0.410658
vt 0.937682 0.930349
vt 0.421915 0.930349
vt 0.421915 0.414582
vt 0.937682 0.414582
vt 0.955190 0.448005
vt 0.955190 0.963772
vt 0.439423 0.963772
vt 0.439423 0.448005
vt 0.955333 0.424567
vt 0.955333 0.940334
vt 0.439565 0.940334
vt 0.439566 0.424567
s 0
f 17/49/13 18/50/13 20/51/13 19/52/13
f 19/53/14 20/54/14 24/55/14 23/56/14
f 23/57/15 24/58/15 22/59/15 21/60/15
f 21/61/16 22/62/16 18/63/16 17/64/16
f 19/65/17 23/66/17 21/67/17 17/68/17
f 24/69/18 20/70/18 18/71/18 22/72/18
o Cube.003
v 0.502582 -0.447153 0.196447
v 0.502582 0.002847 0.196447
v 0.052582 -0.447153 0.196447
v 0.052582 0.002847 0.196447
v 0.502582 -0.447153 -0.503228
v 0.502582 0.002847 -0.503228
v 0.052582 -0.447153 -0.503228
v 0.052582 0.002847 -0.503228
vn -0.0000 -0.0000 1.0000
vn -1.0000 -0.0000 -0.0000
vn -0.0000 -0.0000 -1.0000
vn 1.0000 -0.0000 -0.0000
vn -0.0000 -1.0000 -0.0000
vn -0.0000 1.0000 -0.0000
vt 0.947662 0.924709
vt 0.431895 0.924709
vt 0.431895 0.408942
vt 0.947662 0.408942
vt 0.939992 0.932522
vt 0.424225 0.932522
vt 0.424225 0.416755
vt 0.939992 0.416755
vt 0.932322 0.924141
vt 0.416555 0.924141
vt 0.416555 0.408373
vt 0.932322 0.408374
vt 0.924509 0.924283
vt 0.408742 0.924283
vt 0.408742 0.408516
vt 0.924509 0.408516
vt 0.924509 0.416470
vt 0.924509 0.932238
vt 0.408742 0.932237
vt 0.408742 0.416470
vt 0.947947 0.424425
vt 0.947947 0.940192
vt 0.432180 0.940192
vt 0.432180 0.424425
s 0
f 25/73/19 26/74/19 28/75/19 27/76/19
f 27/77/20 28/78/20 32/79/20 31/80/20
f 31/81/21 32/82/21 30/83/21 29/84/21
f 29/85/22 30/86/22 26/87/22 25/88/22
f 27/89/23 31/90/23 29/91/23 25/92/23
f 32/93/24 28/94/24 26/95/24 30/96/24
o Cube.004
v -0.049354 -0.447153 0.196447
v -0.049354 0.002847 0.196447
v -0.499354 -0.447153 0.196447
v -0.499354 0.002847 0.196447
v -0.049354 -0.447153 -0.503228
v -0.049354 0.002847 -0.503228
v -0.499354 -0.447153 -0.503228
v -0.499354 0.002847 -0.503228
vn -0.0000 -0.0000 1.0000
vn -1.0000 -0.0000 -0.0000
vn -0.0000 -0.0000 -1.0000
vn 1.0000 -0.0000 -0.0000
vn -0.0000 -1.0000 -0.0000
vn -0.0000 1.0000 -0.0000
vt 0.924509 0.948147
vt 0.408742 0.948147
vt 0.408742 0.432380
vt 0.924509 0.432380
vt 0.931753 0.940477
vt 0.415986 0.940477
vt 0.415986 0.424709
vt 0.931753 0.424709
vt 0.947520 0.971727
vt 0.431753 0.971727
vt 0.431753 0.455959
vt 0.947520 0.455959
vt 0.939850 0.956102
vt 0.424083 0.956102
vt 0.424083 0.440334
vt 0.939850 0.440334
vt 0.932180 0.432522
vt 0.932180 0.948289
vt 0.416412 0.948289
vt 0.416412 0.432522
vt 0.940134 0.455959
vt 0.940134 0.971727
vt 0.424367 0.971727
vt 0.424367 0.455959
s 0
f 33/97/25 34/98/25 36/99/25 35/100/25
f 35/101/26 36/102/26 40/103/26 39/104/26
f 39/105/27 40/106/27 38/107/27 37/108/27
f 37/109/28 38/110/28 34/111/28 33/112/28
f 35/113/29 39/114/29 37/115/29 33/116/29
f 40/117/30 36/118/30 34/119/30 38/120/30
o Cube.006
v -0.499195 0.046127 0.502582
v -0.499195 0.496127 0.502582
v -0.499195 0.046127 0.052582
v -0.499195 0.496127 0.052582
v -0.283680 0.046127 0.502582
v -0.283680 0.496127 0.502582
v -0.283680 0.046127 0.052582
v -0.283680 0.496127 0.052582
vn -1.0000 -0.0000 -0.0000
vn -0.0000 -0.0000 -1.0000
vn 1.0000 -0.0000 -0.0000
vn -0.0000 -0.0000 1.0000
vn -0.0000 -1.0000 -0.0000
vn -0.0000 1.0000 -0.0000
vt 0.958366 0.923498
vt 0.442599 0.923498
vt 0.442599 0.407731
vt 0.958366 0.407731
vt 0.948522 0.932344
vt 0.432755 0.932344
vt 0.432755 0.416577
vt 0.948522 0.416577
vt 0.943601 0.931346
vt 0.427834 0.931346
vt 0.427834 0.415579
vt 0.943601 0.415579
vt 0.960360 0.940192
vt 0.444593 0.940192
vt 0.444593 0.424425
vt 0.960360 0.424425
vt 0.954441 0.429347
vt 0.954441 0.945114
vt 0.438674 0.945114
vt 0.438674 0.429347
vt 0.963287 0.424425
vt 0.963287 0.940192
vt 0.447520 0.940192
vt 0.447520 0.424425
s 0
f 41/121/31 42/122/31 44/123/31 43/124/31
f 43/125/32 44/126/32 48/127/32 47/128/32
f 47/129/33 48/130/33 46/131/33 45/132/33
f 45/133/34 46/134/34 42/135/34 41/136/34
f 43/137/35 47/138/35 45/139/35 41/140/35
f 48/141/36 44/142/36 42/143/36 46/144/36
o Cube.007
v -0.499195 0.046127 -0.052582
v -0.499195 0.496127 -0.052582
v -0.499195 0.046127 -0.502582
v -0.499195 0.496127 -0.502582
v -0.283680 0.046127 -0.052582
v -0.283680 0.496127 -0.052582
v -0.283680 0.046127 -0.502582
v -0.283680 0.496127 -0.502582
vn -1.0000 -0.0000 -0.0000
vn -0.0000 -0.0000 -1.0000
vn 1.0000 -0.0000 -0.0000
vn -0.0000 -0.0000 1.0000
vn -0.0000 -1.0000 -0.0000
vn -0.0000 1.0000 -0.0000
vt 0.967212 0.948106
vt 0.451444 0.948106
vt 0.451444 0.432338
vt 0.967212 0.432339
vt 0.431758 0.937265
vt 0.431758 0.421498
vt 0.635006 0.421498
vt 0.635006 0.937265
vt 0.947525 0.926425
vt 0.431758 0.926425
vt 0.431758 0.410658
vt 0.947525 0.410658
vt 0.937682 0.930349
vt 0.421915 0.930349
vt 0.421915 0.414582
vt 0.937682 0.414582
vt 0.955190 0.448005
vt 0.955190 0.963772
vt 0.439423 0.963772
vt 0.439423 0.448005
vt 0.955333 0.424567
vt 0.955333 0.940334
vt 0.439565 0.940334
vt 0.439566 0.424567
s 0
f 49/145/37 50/146/37 52/147/37 51/148/37
f 51/149/38 52/150/38 56/151/38 55/152/38
f 55/153/39 56/154/39 54/155/39 53/156/39
f 53/157/40 54/158/40 50/159/40 49/160/40
f 51/161/41 55/162/41 53/163/41 49/164/41
f 56/165/42 52/166/42 50/167/42 54/168/42
o Cube.005
v 0.502582 -0.447153 0.501063
v 0.502582 0.002847 0.501063
v 0.052582 -0.447153 0.501063
v 0.052582 0.002847 0.501063
v 0.502582 -0.447153 0.273327
v 0.502582 0.002847 0.273327
v 0.052582 -0.447153 0.273327
v 0.052582 0.002847 0.273327
vn -0.0000 -0.0000 1.0000
vn -1.0000 -0.0000 -0.0000
vn -0.0000 -0.0000 -1.0000
vn 1.0000 -0.0000 -0.0000
vn -0.0000 -1.0000 -0.0000
vn -0.0000 1.0000 -0.0000
vt 0.947662 0.924709
vt 0.431895 0.924709
vt 0.431895 0.408942
vt 0.947662 0.408942
vt 0.939992 0.932522
vt 0.424225 0.932522
vt 0.424225 0.416755
vt 0.939992 0.416755
vt 0.932322 0.924141
vt 0.416555 0.924141
vt 0.416555 0.408373
vt 0.932322 0.408374
vt 0.924509 0.924283
vt 0.408742 0.924283
vt 0.408742 0.408516
vt 0.924509 0.408516
vt 0.924509 0.416470
vt 0.924509 0.932238
vt 0.408742 0.932237
vt 0.408742 0.416470
vt 0.947947 0.424425
vt 0.947947 0.940192
vt 0.432180 0.940192
vt 0.432180 0.424425
s 0
f 57/169/43 58/170/43 60/171/43 59/172/43
f 59/173/44 60/174/44 64/175/44 63/176/44
f 63/177/45 64/178/45 62/179/45 61/180/45
f 61/181/46 62/182/46 58/183/46 57/184/46
f 59/185/47 63/186/47 61/187/47 57/188/47
f 64/189/48 60/190/48 58/191/48 62/192/48
o Cube.008
v -0.049354 -0.447153 0.501063
v -0.049354 0.002847 0.501063
v -0.499354 -0.447153 0.501063
v -0.499354 0.002847 0.501063
v -0.049354 -0.447153 0.273327
v -0.049354 0.002847 0.273327
v -0.499354 -0.447153 0.273327
v -0.499354 0.002847 0.273327
vn -0.0000 -0.0000 1.0000
vn -1.0000 -0.0000 -0.0000
vn -0.0000 -0.0000 -1.0000
vn 1.0000 -0.0000 -0.0000
vn -0.0000 -1.0000 -0.0000
vn -0.0000 1.0000 -0.0000
vt 0.924509 0.948147
vt 0.408742 0.948147
vt 0.408742 0.432380
vt 0.924509 0.432380
vt 0.931753 0.940477
vt 0.415986 0.940477
vt 0.415986 0.424709
vt 0.931753 0.424709
vt 0.947520 0.971727
vt 0.431753 0.971727
vt 0.431753 0.455959
vt 0.947520 0.455959
vt 0.939850 0.956102
vt 0.424083 0.956102
vt 0.424083 0.440334
vt 0.939850 0.440334
vt 0.932180 0.432522
vt 0.932180 0.948289
vt 0.416412 0.948289
vt 0.416412 0.432522
vt 0.940134 0.455959
vt 0.940134 0.971727
vt 0.424367 0.971727
vt 0.424367 0.455959
s 0
f 65/193/49 66/194/49 68/195/49 67/196/49
f 67/197/50 68/198/50 72/199/50 71/200/50
f 71/201/51 72/202/51 70/203/51 69/204/51
f 69/205/52 70/206/52 66/207/52 65/208/52
f 67/209/53 71/210/53 69/211/53 65/212/53
f 72/213/54 68/214/54 66/215/54 70/216/54
