# Blender 4.3.2
# www.blender.org
mtllib small_table.mtl
o Cube
v 0.500526 0.404341 0.146717
v 0.500526 0.286365 0.146717
v 0.500526 0.404341 0.499288
v 0.500526 0.286365 0.499288
v -0.499474 0.404341 0.146717
v -0.499474 0.286365 0.146717
v -0.499474 0.404341 0.499288
v -0.499474 0.286365 0.499288
vn -0.0000 1.0000 -0.0000
vn -0.0000 -0.0000 1.0000
vn -1.0000 -0.0000 -0.0000
vn -0.0000 -1.0000 -0.0000
vn 1.0000 -0.0000 -0.0000
vn -0.0000 -0.0000 -1.0000
vt 0.019195 -1.889951
vt 0.019195 -0.931490
vt -0.939266 -0.931490
vt -0.939266 -1.889951
vt 0.051351 2.902352
vt -0.005186 2.902352
vt -0.005186 1.943892
vt 0.051352 1.943892
vt 0.107889 2.902352
vt 0.051352 2.902352
vt 0.107889 1.943892
vt 0.019195 -0.931490
vt 0.019195 0.026971
vt -0.939266 0.026970
vt -0.939266 -0.931490
vt 0.164427 2.902352
vt 0.107889 2.902352
vt 0.107889 1.943892
vt 0.164427 1.943892
vt 0.220965 2.902352
vt 0.164427 2.902352
vt 0.164427 1.943892
vt 0.220965 1.943892
s 0
usemtl Material
f 1/1/1 5/2/1 7/3/1 3/4/1
f 4/5/2 3/6/2 7/7/2 8/8/2
f 8/9/3 7/10/3 5/8/3 6/11/3
f 6/12/4 2/13/4 4/14/4 8/15/4
f 2/16/5 1/17/5 3/18/5 4/19/5
f 6/20/6 5/21/6 1/22/6 2/23/6
o Cube.001
v 0.442109 0.477503 0.213872
v 0.442109 0.378741 0.213872
v 0.442109 0.477503 0.430133
v 0.442109 0.378741 0.430133
v -0.445313 0.477503 0.213872
v -0.445313 0.378741 0.213872
v -0.445313 0.477503 0.430133
v -0.445313 0.378741 0.430133
vn -0.0000 1.0000 -0.0000
vn -0.0000 -0.0000 1.0000
vn -1.0000 -0.0000 -0.0000
vn -0.0000 -1.0000 -0.0000
vn 1.0000 -0.0000 -0.0000
vn -0.0000 -0.0000 -1.0000
vt -0.939266 0.026971
vt -0.939266 0.985431
vt -1.897726 0.985431
vt -1.897726 0.026971
vt 0.277503 2.902352
vt 0.220965 2.902352
vt 0.220965 1.943892
vt 0.277503 1.943892
vt 0.334040 2.902352
vt 0.277503 1.943892
vt 0.334040 1.943892
vt 0.019195 0.026971
vt 0.019195 0.985431
vt -0.939266 0.985431
vt -0.939266 0.026971
vt 0.390578 2.902352
vt 0.334040 2.902352
vt 0.334040 1.943892
vt 0.390578 1.943892
vt 0.447116 2.902352
vt 0.390578 2.902352
vt 0.390578 1.943892
vt 0.447116 1.943892
s 0
usemtl Material
f 9/24/7 13/25/7 15/26/7 11/27/7
f 12/28/8 11/29/8 15/30/8 16/31/8
f 16/32/9 15/28/9 13/33/9 14/34/9
f 14/35/10 10/36/10 12/37/10 16/38/10
f 10/39/11 9/40/11 11/41/11 12/42/11
f 14/43/12 13/44/12 9/45/12 10/46/12
o Cube.002
v -0.402501 0.487764 0.141824
v -0.402501 -0.494359 0.141824
v -0.402501 0.487764 0.241824
v -0.402501 -0.494359 0.241824
v -0.502501 0.487764 0.141824
v -0.502501 -0.494359 0.141824
v -0.502501 0.487764 0.241824
v -0.502501 -0.494359 0.241824
vn -0.0000 1.0000 -0.0000
vn -0.0000 -0.0000 1.0000
vn -1.0000 -0.0000 -0.0000
vn -0.0000 -1.0000 -0.0000
vn 1.0000 -0.0000 -0.0000
vn -0.0000 -0.0000 -1.0000
vt 0.977655 -1.889951
vt 0.977655 -0.931490
vt 0.019195 -0.931490
vt 0.019195 -1.889951
vt 1.923925 -0.931490
vt 1.450790 -0.931490
vt 1.450791 -1.889951
vt 1.923926 -1.889951
vt 1.923925 0.026970
vt 1.450790 0.026970
vt 0.977655 -0.931490
vt 0.977655 0.026971
vt 0.019195 0.026970
vt 0.019195 -0.931490
vt 1.923926 0.985431
vt 1.450791 0.985431
vt 1.450791 0.026970
vt 1.923926 0.026970
vt 1.923925 1.943891
vt 1.450790 1.943891
s 0
usemtl Material
f 17/47/13 21/48/13 23/49/13 19/50/13
f 20/51/14 19/52/14 23/53/14 24/54/14
f 24/55/15 23/56/15 21/52/15 22/51/15
f 22/57/16 18/58/16 20/59/16 24/60/16
f 18/61/17 17/62/17 19/63/17 20/64/17
f 22/65/18 21/66/18 17/62/18 18/61/18
o Cube.003
v -0.402109 0.487764 0.402966
v -0.402109 -0.494359 0.402966
v -0.402109 0.487764 0.502966
v -0.402109 -0.494359 0.502966
v -0.502109 0.487764 0.402966
v -0.502109 -0.494359 0.402966
v -0.502109 0.487764 0.502966
v -0.502109 -0.494359 0.502966
vn -0.0000 1.0000 -0.0000
vn -0.0000 -0.0000 1.0000
vn -1.0000 -0.0000 -0.0000
vn -0.0000 -1.0000 -0.0000
vn 1.0000 -0.0000 -0.0000
vn -0.0000 -0.0000 -1.0000
vt -0.939266 -1.889951
vt -0.939266 -0.931490
vt -1.897726 -0.931490
vt -1.897726 -1.889951
vt 1.450790 -0.931490
vt 0.977655 -0.931490
vt 0.977655 -1.889951
vt 1.450790 -1.889951
vt 1.450790 0.026970
vt 0.977655 0.026970
vt -0.939266 -0.931490
vt -0.939266 0.026971
vt -1.897726 0.026971
vt -1.897726 -0.931490
vt 1.450790 0.985431
vt 0.977655 0.985431
vt 0.977655 0.026970
vt 1.450790 0.026970
vt 1.450790 1.943891
vt 0.977655 1.943891
s 0
usemtl Material
f 25/67/19 29/68/19 31/69/19 27/70/19
f 28/71/20 27/72/20 31/73/20 32/74/20
f 32/75/21 31/76/21 29/72/21 30/71/21
f 30/77/22 26/78/22 28/79/22 32/80/22
f 26/81/23 25/82/23 27/83/23 28/84/23
f 30/85/24 29/86/24 25/82/24 26/81/24
o Cube.004
v 0.500915 0.487764 0.400764
v 0.500915 -0.494359 0.400764
v 0.500915 0.487764 0.500764
v 0.500915 -0.494359 0.500764
v 0.400915 0.487764 0.400764
v 0.400915 -0.494359 0.400764
v 0.400915 0.487764 0.500764
v 0.400915 -0.494359 0.500764
vn -0.0000 1.0000 -0.0000
vn -0.0000 -0.0000 1.0000
vn -1.0000 -0.0000 -0.0000
vn -0.0000 -1.0000 -0.0000
vn 1.0000 -0.0000 -0.0000
vn -0.0000 -0.0000 -1.0000
vt 0.977655 0.026971
vt 0.977655 0.985431
vt 0.019195 0.985431
vt 0.019195 0.026970
vt 2.397060 -0.931490
vt 1.923925 -0.931490
vt 1.923925 -1.889951
vt 2.397060 -1.889951
vt 2.397060 0.026970
vt 1.923925 0.026970
vt -0.939266 0.985431
vt -0.939266 1.943892
vt -1.897726 1.943892
vt -1.897726 0.985431
vt 2.397060 0.985431
vt 1.923925 0.985431
vt 2.397060 0.026970
vt 2.397060 1.943891
vt 1.923925 1.943891
vt 1.923926 0.985431
vt 2.397061 0.985431
s 0
usemtl Material
f 33/87/25 37/88/25 39/89/25 35/90/25
f 36/91/26 35/92/26 39/93/26 40/94/26
f 40/95/27 39/96/27 37/92/27 38/91/27
f 38/97/28 34/98/28 36/99/28 40/100/28
f 34/101/29 33/102/29 35/96/29 36/103/29
f 38/104/30 37/105/30 33/106/30 34/107/30
o Cube.005
v 0.504550 0.484536 0.143400
v 0.504550 -0.497587 0.143400
v 0.504550 0.484536 0.243400
v 0.504550 -0.497587 0.243400
v 0.402168 0.484536 0.143400
v 0.402168 -0.497587 0.143400
v 0.402168 0.484536 0.243400
v 0.402168 -0.497587 0.243400
vn -0.0000 1.0000 -0.0000
vn -0.0000 -0.0000 1.0000
vn -1.0000 -0.0000 -0.0000
vn -0.0000 -1.0000 -0.0000
vn 1.0000 -0.0000 -0.0000
vn -0.0000 -0.0000 -1.0000
vt 0.019195 0.985431
vt 0.019195 1.943892
vt -0.939266 1.943892
vt -0.939266 0.985431
vt -1.424591 2.902352
vt -1.897726 2.902352
vt -1.897726 1.943892
vt -1.424591 1.943892
vt -0.951456 2.902352
vt -0.951456 1.943892
vt 0.977655 0.985431
vt 0.977655 1.943892
vt 0.019195 1.943891
vt 0.019195 0.985431
vt -0.478321 2.902352
vt -0.951456 2.902352
vt -0.951456 1.943892
vt -0.478321 1.943892
vt -0.005186 2.902352
vt -0.005186 1.943892
s 0
usemtl Material
f 41/108/31 45/109/31 47/110/31 43/111/31
f 44/112/32 43/113/32 47/114/32 48/115/32
f 48/116/33 47/112/33 45/115/33 46/117/33
f 46/118/34 42/119/34 44/120/34 48/121/34
f 42/122/35 41/123/35 43/124/35 44/125/35
f 46/126/36 45/122/36 41/125/36 42/127/36
