# Blender 4.3.2
# www.blender.org
mtllib mycastle_tapestry.mtl
o Cube
v 0.517810 0.501493 0.459420
v 0.518317 -0.501494 0.457977
v 0.511757 0.501493 0.493493
v 0.510838 -0.501494 0.494892
v -0.510935 0.500674 0.465091
v -0.514752 -0.500492 0.464804
v -0.510020 0.500478 0.507301
v -0.505427 -0.500686 0.507306
v 0.465584 -0.501504 0.446930
v 0.418836 -0.501529 0.433815
v 0.376589 -0.501552 0.418991
v 0.337458 -0.501523 0.404765
v 0.305729 -0.501385 0.398288
v 0.260175 -0.501282 0.400604
v 0.215164 -0.500982 0.407043
v 0.170128 -0.500456 0.412498
v 0.122626 -0.500704 0.413834
v 0.071190 -0.501752 0.411061
v 0.012280 -0.502292 0.406710
v -0.058040 -0.502348 0.407637
v -0.144387 -0.501925 0.417452
v -0.253453 -0.500999 0.432696
v -0.382945 -0.500530 0.449046
v 0.459596 0.501504 0.482180
v 0.413252 0.501530 0.468717
v 0.372610 0.501549 0.453745
v 0.336420 0.501518 0.440293
v 0.302441 0.501393 0.434973
v 0.257365 0.501297 0.437083
v 0.214534 0.500987 0.443343
v 0.169688 0.500451 0.448949
v 0.121978 0.500698 0.450313
v 0.070034 0.501754 0.447484
v 0.012141 0.502296 0.443641
v -0.055662 0.502351 0.445706
v -0.140532 0.501924 0.457047
v -0.249140 0.500989 0.474058
v -0.378390 0.500516 0.491365
v -0.377014 -0.500628 0.491301
v -0.248989 -0.501050 0.473986
v -0.140782 -0.501958 0.456985
v -0.055994 -0.502370 0.445666
v 0.011833 -0.502307 0.443610
v 0.069777 -0.501761 0.447460
v 0.121771 -0.500702 0.450293
v 0.169525 -0.500454 0.448930
v 0.214406 -0.500989 0.443323
v 0.257265 -0.501298 0.437061
v 0.302272 -0.501395 0.434958
v 0.336259 -0.501519 0.440280
v 0.372431 -0.501551 0.453781
v 0.412996 -0.501531 0.468892
v 0.459139 -0.501505 0.482715
v -0.381914 0.500621 0.449144
v -0.253382 0.501044 0.432722
v -0.144557 0.501947 0.417453
v -0.058206 0.502357 0.407630
v 0.012183 0.502296 0.406703
v 0.071159 0.501753 0.411055
v 0.122645 0.500704 0.413828
v 0.170176 0.500455 0.412490
v 0.215227 0.500981 0.407033
v 0.260240 0.501281 0.400592
v 0.305847 0.501384 0.398270
v 0.337563 0.501522 0.404768
v 0.376663 0.501551 0.419043
v 0.418845 0.501527 0.434002
v 0.465435 0.501503 0.447486
vn 0.0005 1.0000 0.0035
vn 0.1219 0.0003 0.9925
vn -0.9928 -0.0004 0.1200
vn 0.0002 -1.0000 -0.0000
vn 0.9823 -0.0002 0.1873
vn 0.2136 0.0010 -0.9769
vn -0.1207 0.0005 -0.9927
vn -0.1260 0.0001 -0.9920
vn -0.1387 -0.0000 -0.9903
vn -0.1130 -0.0000 -0.9936
vn -0.0132 -0.0000 -0.9999
vn 0.0736 -0.0000 -0.9973
vn 0.0538 -0.0000 -0.9986
vn -0.0281 -0.0000 -0.9996
vn -0.1202 -0.0000 -0.9927
vn -0.1416 -0.0000 -0.9899
vn -0.0508 -0.0000 -0.9987
vn 0.2004 -0.0000 -0.9797
vn 0.3423 -0.0000 -0.9396
vn 0.3327 0.0001 -0.9430
vn 0.2741 0.0004 -0.9617
vn -0.0003 -1.0000 -0.0034
vn -0.0036 -1.0000 -0.0013
vn -0.0085 -1.0000 -0.0002
vn -0.0049 -1.0000 -0.0003
vn 0.0008 -1.0000 -0.0005
vn 0.0093 -1.0000 -0.0001
vn 0.0203 -0.9998 0.0005
vn 0.0052 -1.0000 0.0002
vn -0.0118 -0.9999 -0.0003
vn -0.0070 -1.0000 -0.0007
vn -0.0022 -1.0000 -0.0006
vn -0.0039 -1.0000 -0.0003
vn -0.0008 -1.0000 -0.0000
vn 0.0005 -1.0000 0.0001
vn 0.0005 -1.0000 -0.0000
vn -0.2206 0.0011 0.9754
vn -0.2830 0.0004 0.9591
vn -0.3474 0.0002 0.9377
vn -0.3490 0.0001 0.9371
vn -0.1547 -0.0000 0.9880
vn 0.0467 -0.0000 0.9989
vn 0.1446 -0.0000 0.9895
vn 0.1240 -0.0000 0.9923
vn 0.0286 -0.0000 0.9996
vn -0.0544 -0.0000 0.9985
vn -0.0663 -0.0000 0.9978
vn 0.0304 -0.0000 0.9995
vn 0.1324 -0.0001 0.9912
vn 0.1550 -0.0001 0.9879
vn 0.1334 -0.0000 0.9911
vn 0.0002 1.0000 -0.0000
vn 0.0005 1.0000 -0.0000
vn 0.0005 1.0000 0.0001
vn -0.0008 1.0000 -0.0000
vn -0.0039 1.0000 -0.0003
vn -0.0022 1.0000 -0.0005
vn -0.0070 1.0000 -0.0007
vn -0.0118 0.9999 -0.0002
vn 0.0052 1.0000 0.0002
vn 0.0203 0.9998 0.0006
vn 0.0093 1.0000 0.0001
vn 0.0008 1.0000 0.0001
vn -0.0048 1.0000 0.0008
vn -0.0082 1.0000 0.0018
vn -0.0032 1.0000 0.0022
vt -0.002604 0.041329
vt -0.002604 0.103143
vt -0.991631 0.103143
vt -0.991631 0.041328
vt -0.002604 0.164957
vt -0.991631 0.164957
vt -0.991631 0.103143
vt -0.002604 0.103143
vt 0.986423 0.103143
vt -0.002604 0.103143
vt -0.002604 -0.885884
vt 0.986423 -0.885884
vt 0.986423 1.030355
vt 0.986423 1.092170
vt -0.002604 1.092170
vt -0.002604 1.030355
vt -0.002604 2.081196
vt -0.991631 2.081196
vt -0.991631 1.092170
vt -0.002604 1.092170
vt 0.986423 1.153984
vt -0.002604 1.153984
vt -0.002604 1.092170
vt 0.986423 1.092170
vt 0.986423 2.081196
vt -0.002604 2.081196
vt -0.002604 2.019382
vt 0.986423 2.019382
vt -0.002604 1.957568
vt 0.986423 1.957568
vt -0.002604 1.895754
vt 0.986423 1.895754
vt -0.002604 1.833940
vt 0.986423 1.833940
vt -0.002604 1.772125
vt 0.986423 1.772125
vt -0.002604 1.710311
vt 0.986423 1.710311
vt -0.002604 1.648497
vt 0.986423 1.648497
vt -0.002604 1.586683
vt 0.986423 1.586683
vt -0.002604 1.524869
vt 0.986423 1.524869
vt -0.002604 1.463055
vt 0.986423 1.463055
vt -0.002604 1.401240
vt 0.986423 1.401241
vt -0.002604 1.339426
vt 0.986423 1.339426
vt -0.002604 1.277612
vt 0.986423 1.277612
vt -0.002604 1.215798
vt 0.986423 1.215798
vt 0.986423 0.103143
vt 0.986423 0.164957
vt -0.002604 0.164957
vt -0.002604 0.103143
vt 0.986423 0.226771
vt -0.002604 0.226771
vt 0.986423 0.288585
vt -0.002604 0.288585
vt 0.986423 0.350400
vt -0.002604 0.350399
vt 0.986423 0.412214
vt -0.002604 0.412214
vt 0.986423 0.474028
vt -0.002604 0.474028
vt 0.986423 0.535842
vt -0.002604 0.535842
vt 0.986423 0.597656
vt -0.002604 0.597656
vt 0.986423 0.659471
vt -0.002604 0.659470
vt 0.986423 0.721285
vt -0.002604 0.721285
vt 0.986423 0.783099
vt -0.002604 0.783099
vt 0.986423 0.844913
vt -0.002604 0.844913
vt 0.986423 0.906727
vt -0.002604 0.906727
vt 0.986423 0.968541
vt -0.002604 0.968541
vt -0.002604 1.092170
vt -0.991631 1.092170
vt -0.991631 1.030355
vt -0.002604 1.030355
vt -0.991631 0.968541
vt -0.002604 0.968541
vt -0.991631 0.906727
vt -0.002604 0.906727
vt -0.991631 0.844913
vt -0.002604 0.844913
vt -0.991631 0.783099
vt -0.002604 0.783099
vt -0.991631 0.721285
vt -0.002604 0.721285
vt -0.991631 0.659470
vt -0.002604 0.659471
vt -0.991631 0.597656
vt -0.002604 0.597656
vt -0.991631 0.535842
vt -0.002604 0.535842
vt -0.991631 0.474028
vt -0.002604 0.474028
vt -0.991631 0.412214
vt -0.002604 0.412214
vt -0.991631 0.350400
vt -0.002604 0.350400
vt -0.991631 0.288585
vt -0.002604 0.288585
vt -0.991631 0.226771
vt -0.002604 0.226771
vt -0.002604 -0.885884
vt -0.002604 -0.824070
vt -0.991631 -0.824070
vt -0.991631 -0.885884
vt -0.002604 -0.762256
vt -0.991631 -0.762256
vt -0.002604 -0.700441
vt -0.991631 -0.700441
vt -0.002604 -0.638627
vt -0.991631 -0.638627
vt -0.002604 -0.576813
vt -0.991631 -0.576813
vt -0.002604 -0.514999
vt -0.991631 -0.514999
vt -0.002604 -0.453185
vt -0.991631 -0.453185
vt -0.002604 -0.391370
vt -0.991631 -0.391371
vt -0.002604 -0.329556
vt -0.991631 -0.329556
vt -0.002604 -0.267742
vt -0.991631 -0.267742
vt -0.002604 -0.205928
vt -0.991631 -0.205928
vt -0.002604 -0.144114
vt -0.991631 -0.144114
vt -0.002604 -0.082300
vt -0.991631 -0.082300
vt -0.002604 -0.020486
vt -0.991631 -0.020486
s 0
usemtl Material
f 54/1/1 5/2/1 7/3/1 38/4/1
f 39/5/2 38/6/2 7/7/2 8/8/2
f 8/9/3 7/10/3 5/11/3 6/12/3
f 9/13/4 2/14/4 4/15/4 53/16/4
f 2/17/5 1/18/5 3/19/5 4/20/5
f 9/21/6 68/22/6 1/23/6 2/24/6
f 6/25/7 5/26/7 54/27/7 23/28/7
f 23/28/8 54/27/8 55/29/8 22/30/8
f 22/30/9 55/29/9 56/31/9 21/32/9
f 21/32/10 56/31/10 57/33/10 20/34/10
f 20/34/11 57/33/11 58/35/11 19/36/11
f 19/36/12 58/35/12 59/37/12 18/38/12
f 18/38/13 59/37/13 60/39/13 17/40/13
f 17/40/14 60/39/14 61/41/14 16/42/14
f 16/42/15 61/41/15 62/43/15 15/44/15
f 15/44/16 62/43/16 63/45/16 14/46/16
f 14/46/17 63/45/17 64/47/17 13/48/17
f 13/48/18 64/47/18 65/49/18 12/50/18
f 12/50/19 65/49/19 66/51/19 11/52/19
f 11/52/20 66/51/20 67/53/20 10/54/20
f 10/54/21 67/53/21 68/22/21 9/21/21
f 6/55/22 23/56/22 39/57/22 8/58/22
f 23/56/23 22/59/23 40/60/23 39/57/23
f 22/59/24 21/61/24 41/62/24 40/60/24
f 21/61/25 20/63/25 42/64/25 41/62/25
f 20/63/26 19/65/26 43/66/26 42/64/26
f 19/65/27 18/67/27 44/68/27 43/66/27
f 18/67/28 17/69/28 45/70/28 44/68/28
f 17/69/29 16/71/29 46/72/29 45/70/29
f 16/71/30 15/73/30 47/74/30 46/72/30
f 15/73/31 14/75/31 48/76/31 47/74/31
f 14/75/32 13/77/32 49/78/32 48/76/32
f 13/77/33 12/79/33 50/80/33 49/78/33
f 12/79/34 11/81/34 51/82/34 50/80/34
f 11/81/35 10/83/35 52/84/35 51/82/35
f 10/83/36 9/13/36 53/16/36 52/84/36
f 4/85/37 3/86/37 24/87/37 53/88/37
f 53/88/38 24/87/38 25/89/38 52/90/38
f 52/90/39 25/89/39 26/91/39 51/92/39
f 51/92/40 26/91/40 27/93/40 50/94/40
f 50/94/41 27/93/41 28/95/41 49/96/41
f 49/96/42 28/95/42 29/97/42 48/98/42
f 48/98/43 29/97/43 30/99/43 47/100/43
f 47/100/44 30/99/44 31/101/44 46/102/44
f 46/102/45 31/101/45 32/103/45 45/104/45
f 45/104/46 32/103/46 33/105/46 44/106/46
f 44/106/47 33/105/47 34/107/47 43/108/47
f 43/108/48 34/107/48 35/109/48 42/110/48
f 42/110/49 35/109/49 36/111/49 41/112/49
f 41/112/50 36/111/50 37/113/50 40/114/50
f 40/114/51 37/113/51 38/6/51 39/5/51
f 1/115/52 68/116/52 24/117/52 3/118/52
f 68/116/53 67/119/53 25/120/53 24/117/53
f 67/119/54 66/121/54 26/122/54 25/120/54
f 66/121/55 65/123/55 27/124/55 26/122/55
f 65/123/56 64/125/56 28/126/56 27/124/56
f 64/125/57 63/127/57 29/128/57 28/126/57
f 63/127/58 62/129/58 30/130/58 29/128/58
f 62/129/59 61/131/59 31/132/59 30/130/59
f 61/131/60 60/133/60 32/134/60 31/132/60
f 60/133/61 59/135/61 33/136/61 32/134/61
f 59/135/62 58/137/62 34/138/62 33/136/62
f 58/137/63 57/139/63 35/140/63 34/138/63
f 57/139/64 56/141/64 36/142/64 35/140/64
f 56/141/65 55/143/65 37/144/65 36/142/65
f 55/143/66 54/1/66 38/4/66 37/144/66
