# Blender 4.3.2
# www.blender.org
mtllib crossbars.mtl
o Cube
v 0.450200 -0.438442 0.505815
v 0.450200 -0.438442 -0.494185
v 0.500200 -0.438442 0.505815
v 0.500200 -0.438442 -0.494185
v 0.450200 -0.488442 0.505815
v 0.450200 -0.488442 -0.494185
v 0.500200 -0.488442 0.505815
v 0.500200 -0.488442 -0.494185
vn -0.0000 -0.0000 1.0000
vn 1.0000 -0.0000 -0.0000
vn -0.0000 -1.0000 -0.0000
vn -0.0000 -0.0000 -1.0000
vn -0.0000 1.0000 -0.0000
vn -1.0000 -0.0000 -0.0000
vt 0.312500 0.656250
vt 0.281250 0.656250
vt 0.281250 0.625000
vt 0.312500 0.625000
vt 0.000000 0.625000
vt 0.000000 0.000000
vt 0.031250 0.000000
vt 0.031250 0.625000
vt 0.062500 0.000000
vt 0.062500 0.625000
vt 0.031250 0.625000
vt 0.031250 0.656250
vt 0.000000 0.656250
vt 0.000000 0.625000
vt 0.093750 0.000000
vt 0.093750 0.625000
vt 0.125000 0.000000
vt 0.125000 0.625000
s 0
usemtl Material
f 1/1/1 5/2/1 7/3/1 3/4/1
f 4/5/2 3/6/2 7/7/2 8/8/2
f 8/8/3 7/7/3 5/9/3 6/10/3
f 6/11/4 2/12/4 4/13/4 8/14/4
f 2/10/5 1/9/5 3/15/5 4/16/5
f 6/16/6 5/15/6 1/17/6 2/18/6
o Cube.001
v 0.147920 -0.441754 0.505815
v 0.147920 -0.441754 -0.494185
v 0.197920 -0.441754 0.505815
v 0.197920 -0.441754 -0.494185
v 0.147920 -0.491754 0.505815
v 0.147920 -0.491754 -0.494185
v 0.197920 -0.491754 0.505815
v 0.197920 -0.491754 -0.494185
vn -0.0000 -0.0000 1.0000
vn 1.0000 -0.0000 -0.0000
vn -0.0000 -1.0000 -0.0000
vn -0.0000 -0.0000 -1.0000
vn -0.0000 1.0000 -0.0000
vn -1.0000 -0.0000 -0.0000
vt 0.343750 0.656250
vt 0.312500 0.656250
vt 0.312500 0.625000
vt 0.343750 0.625000
vt 0.125000 0.625000
vt 0.125000 0.000000
vt 0.156250 0.000000
vt 0.156250 0.625000
vt 0.187500 0.000000
vt 0.187500 0.625000
vt 0.062500 0.625000
vt 0.062500 0.656250
vt 0.031250 0.656250
vt 0.031250 0.625000
vt 0.218750 0.000000
vt 0.218750 0.625000
vt 0.250000 0.000000
vt 0.250000 0.625000
s 0
usemtl Material
f 9/19/7 13/20/7 15/21/7 11/22/7
f 12/23/8 11/24/8 15/25/8 16/26/8
f 16/26/9 15/25/9 13/27/9 14/28/9
f 14/29/10 10/30/10 12/31/10 16/32/10
f 10/28/11 9/27/11 11/33/11 12/34/11
f 14/34/12 13/33/12 9/35/12 10/36/12
o Cube.002
v -0.197574 -0.441754 0.509127
v -0.197574 -0.441754 -0.490873
v -0.147574 -0.441754 0.509127
v -0.147574 -0.441754 -0.490873
v -0.197574 -0.491754 0.509127
v -0.197574 -0.491754 -0.490873
v -0.147574 -0.491754 0.509127
v -0.147574 -0.491754 -0.490873
vn -0.0000 -0.0000 1.0000
vn 1.0000 -0.0000 -0.0000
vn -0.0000 -1.0000 -0.0000
vn -0.0000 -0.0000 -1.0000
vn -0.0000 1.0000 -0.0000
vn -1.0000 -0.0000 -0.0000
vt 0.375000 0.656250
vt 0.343750 0.656250
vt 0.343750 0.625000
vt 0.375000 0.625000
vt 0.250000 0.625000
vt 0.250000 0.000000
vt 0.281250 0.000000
vt 0.281250 0.625000
vt 0.312500 0.000000
vt 0.312500 0.625000
vt 0.093750 0.625000
vt 0.093750 0.656250
vt 0.062500 0.656250
vt 0.062500 0.625000
vt 0.343750 0.000000
vt 0.343750 0.625000
vt 0.343750 0.625000
vt 0.343750 0.000000
vt 0.375000 0.000000
vt 0.375000 0.625000
s 0
usemtl Material
f 17/37/13 21/38/13 23/39/13 19/40/13
f 20/41/14 19/42/14 23/43/14 24/44/14
f 24/44/15 23/43/15 21/45/15 22/46/15
f 22/47/16 18/48/16 20/49/16 24/50/16
f 18/46/17 17/45/17 19/51/17 20/52/17
f 22/53/18 21/54/18 17/55/18 18/56/18
o Cube.003
v -0.506524 -0.435130 0.506689
v -0.506524 -0.435130 -0.493311
v -0.456524 -0.435130 0.506689
v -0.456524 -0.435130 -0.493311
v -0.506524 -0.485130 0.506689
v -0.506524 -0.485130 -0.493311
v -0.456524 -0.485130 0.506689
v -0.456524 -0.485130 -0.493311
vn -0.0000 -0.0000 1.0000
vn 1.0000 -0.0000 -0.0000
vn -0.0000 -1.0000 -0.0000
vn -0.0000 -0.0000 -1.0000
vn -0.0000 1.0000 -0.0000
vn -1.0000 -0.0000 -0.0000
vt 0.406250 0.656250
vt 0.375000 0.656250
vt 0.375000 0.625000
vt 0.406250 0.625000
vt 0.375000 0.625000
vt 0.375000 0.000000
vt 0.406250 0.000000
vt 0.406250 0.625000
vt 0.406250 0.625000
vt 0.406250 0.000000
vt 0.437500 0.000000
vt 0.437500 0.625000
vt 0.156250 0.625000
vt 0.156250 0.656250
vt 0.125000 0.656250
vt 0.125000 0.625000
vt 0.437500 0.625000
vt 0.437500 0.000000
vt 0.468750 0.000000
vt 0.468750 0.625000
vt 0.468750 0.625000
vt 0.468750 0.000000
vt 0.500000 0.000000
vt 0.500000 0.625000
s 0
usemtl Material
f 25/57/19 29/58/19 31/59/19 27/60/19
f 28/61/20 27/62/20 31/63/20 32/64/20
f 32/65/21 31/66/21 29/67/21 30/68/21
f 30/69/22 26/70/22 28/71/22 32/72/22
f 26/73/23 25/74/23 27/75/23 28/76/23
f 30/77/24 29/78/24 25/79/24 26/80/24
o Cube.004
v 0.492219 -0.438442 -0.443449
v -0.507781 -0.438442 -0.443449
v 0.492219 -0.438442 -0.493449
v -0.507781 -0.438442 -0.493449
v 0.492219 -0.488442 -0.443449
v -0.507781 -0.488442 -0.443449
v 0.492219 -0.488442 -0.493449
v -0.507781 -0.488442 -0.493449
vn 1.0000 -0.0000 -0.0000
vn -0.0000 -0.0000 -1.0000
vn -0.0000 -1.0000 -0.0000
vn -1.0000 -0.0000 -0.0000
vn -0.0000 1.0000 -0.0000
vn -0.0000 -0.0000 1.0000
vt 0.437500 0.656250
vt 0.406250 0.656250
vt 0.406250 0.625000
vt 0.437500 0.625000
vt 0.500000 0.625000
vt 0.500000 0.000000
vt 0.531250 0.000000
vt 0.531250 0.625000
vt 0.562500 0.000000
vt 0.562500 0.625000
vt 0.187500 0.625000
vt 0.187500 0.656250
vt 0.156250 0.656250
vt 0.156250 0.625000
vt 0.593750 0.000000
vt 0.593750 0.625000
vt 0.593750 0.625000
vt 0.593750 0.000000
vt 0.625000 0.000000
vt 0.625000 0.625000
s 0
usemtl Material
f 33/81/25 37/82/25 39/83/25 35/84/25
f 36/85/26 35/86/26 39/87/26 40/88/26
f 40/88/27 39/87/27 37/89/27 38/90/27
f 38/91/28 34/92/28 36/93/28 40/94/28
f 34/90/29 33/89/29 35/95/29 36/96/29
f 38/97/30 37/98/30 33/99/30 34/100/30
o Cube.005
v 0.495531 -0.441754 -0.147793
v -0.504469 -0.441754 -0.147792
v 0.495531 -0.441754 -0.197793
v -0.504469 -0.441754 -0.197792
v 0.495531 -0.491754 -0.147793
v -0.504469 -0.491754 -0.147792
v 0.495531 -0.491754 -0.197793
v -0.504469 -0.491754 -0.197792
vn 1.0000 -0.0000 -0.0000
vn -0.0000 -0.0000 -1.0000
vn -0.0000 -1.0000 -0.0000
vn -1.0000 -0.0000 -0.0000
vn -0.0000 1.0000 -0.0000
vn -0.0000 -0.0000 1.0000
vt 0.468750 0.656250
vt 0.437500 0.656250
vt 0.437500 0.625000
vt 0.468750 0.625000
vt 0.625000 0.625000
vt 0.625000 0.000000
vt 0.656250 0.000000
vt 0.656250 0.625000
vt 0.656250 0.625000
vt 0.656250 0.000000
vt 0.687500 0.000000
vt 0.687500 0.625000
vt 0.218750 0.625000
vt 0.218750 0.656250
vt 0.187500 0.656250
vt 0.187500 0.625000
vt 0.718750 0.000000
vt 0.718750 0.625000
vt 0.718750 0.625000
vt 0.718750 0.000000
vt 0.750000 0.000000
vt 0.750000 0.625000
s 0
usemtl Material
f 41/101/31 45/102/31 47/103/31 43/104/31
f 44/105/32 43/106/32 47/107/32 48/108/32
f 48/109/33 47/110/33 45/111/33 46/112/33
f 46/113/34 42/114/34 44/115/34 48/116/34
f 42/112/35 41/111/35 43/117/35 44/118/35
f 46/119/36 45/120/36 41/121/36 42/122/36
o Cube.006
v 0.498843 -0.441755 0.201013
v -0.501157 -0.441754 0.201014
v 0.498843 -0.441755 0.151013
v -0.501157 -0.441754 0.151013
v 0.498843 -0.491755 0.201013
v -0.501157 -0.491755 0.201014
v 0.498843 -0.491755 0.151013
v -0.501157 -0.491755 0.151013
vn 1.0000 -0.0000 -0.0000
vn -0.0000 -0.0000 -1.0000
vn -0.0000 -1.0000 -0.0000
vn -1.0000 -0.0000 -0.0000
vn -0.0000 1.0000 -0.0000
vn -0.0000 -0.0000 1.0000
vt 0.500000 0.656250
vt 0.468750 0.656250
vt 0.468750 0.625000
vt 0.500000 0.625000
vt 0.750000 0.625000
vt 0.750000 0.000000
vt 0.781250 0.000000
vt 0.781250 0.625000
vt 0.812500 0.000000
vt 0.812500 0.625000
vt 0.250000 0.625000
vt 0.250000 0.656250
vt 0.218750 0.656250
vt 0.218750 0.625000
vt 0.843750 0.000000
vt 0.843750 0.625000
vt 0.875000 0.000000
vt 0.875000 0.625000
s 0
usemtl Material
f 49/123/37 53/124/37 55/125/37 51/126/37
f 52/127/38 51/128/38 55/129/38 56/130/38
f 56/130/39 55/129/39 53/131/39 54/132/39
f 54/133/40 50/134/40 52/135/40 56/136/40
f 50/132/41 49/131/41 51/137/41 52/138/41
f 54/138/42 53/137/42 49/139/42 50/140/42
o Cube.007
v 0.499717 -0.435130 0.506651
v -0.500283 -0.435130 0.506651
v 0.499717 -0.435130 0.456651
v -0.500283 -0.435130 0.456651
v 0.499717 -0.485130 0.506651
v -0.500283 -0.485130 0.506651
v 0.499717 -0.485130 0.456651
v -0.500283 -0.485130 0.456651
vn 1.0000 -0.0000 -0.0000
vn -0.0000 -0.0000 -1.0000
vn -0.0000 -1.0000 -0.0000
vn -1.0000 -0.0000 -0.0000
vn -0.0000 1.0000 -0.0000
vn -0.0000 -0.0000 1.0000
vt 0.531250 0.656250
vt 0.500000 0.656250
vt 0.500000 0.625000
vt 0.531250 0.625000
vt 0.875000 0.625000
vt 0.875000 0.000000
vt 0.906250 0.000000
vt 0.906250 0.625000
vt 0.906250 0.625000
vt 0.906250 0.000000
vt 0.937500 0.000000
vt 0.937500 0.625000
vt 0.281250 0.625000
vt 0.281250 0.656250
vt 0.250000 0.656250
vt 0.250000 0.625000
vt 0.968750 0.000000
vt 0.968750 0.625000
vt 0.968750 0.625000
vt 0.968750 0.000000
vt 1.000000 0.000000
vt 1.000000 0.625000
s 0
usemtl Material
f 57/141/43 61/142/43 63/143/43 59/144/43
f 60/145/44 59/146/44 63/147/44 64/148/44
f 64/149/45 63/150/45 61/151/45 62/152/45
f 62/153/46 58/154/46 60/155/46 64/156/46
f 58/152/47 57/151/47 59/157/47 60/158/47
f 62/159/48 61/160/48 57/161/48 58/162/48
