# Blender 4.3.2
# www.blender.org
mtllib mycastle_arch.mtl
o Cube
v 0.500000 -0.500000 -0.500000
v 0.500000 0.500000 0.500000
v 0.500000 -0.500000 0.500000
v -0.500000 -0.500000 -0.500000
v -0.500000 0.500000 0.500000
v -0.500000 -0.500000 0.500000
v 0.500000 0.000000 -0.500000
v 0.500000 0.500000 0.000000
v 0.500000 0.006961 -0.362422
v 0.500000 0.038232 -0.228265
v 0.500000 0.111803 -0.111803
v 0.500000 0.228265 -0.038232
v 0.500000 0.362422 -0.006961
v -0.500000 0.500000 0.000000
v -0.500000 0.000000 -0.500000
v -0.500000 0.362422 -0.006961
v -0.500000 0.228265 -0.038232
v -0.500000 0.111803 -0.111803
v -0.500000 0.038232 -0.228265
v -0.500000 0.006961 -0.362422
vn -1.0000 -0.0000 -0.0000
vn -0.0000 -0.0000 1.0000
vn -0.0000 -1.0000 -0.0000
vn -0.0000 1.0000 -0.0000
vn 1.0000 -0.0000 -0.0000
vn -0.0000 0.0505 -0.9987
vn -0.0000 0.2270 -0.9739
vn -0.0000 0.5341 -0.8454
vn -0.0000 0.8454 -0.5341
vn -0.0000 0.9739 -0.2270
vn -0.0000 0.9987 -0.0505
vn -0.0000 -0.0000 -1.0000
vt 0.375000 0.000000
vt 0.625000 0.000000
vt 0.625000 0.125000
vt 0.590606 0.126740
vt 0.557066 0.134558
vt 0.527951 0.152951
vt 0.509558 0.182066
vt 0.501740 0.215606
vt 0.500000 0.250000
vt 0.375000 0.250000
vt 0.375000 0.750000
vt 0.625000 0.750000
vt 0.625000 1.000000
vt 0.375000 1.000000
vt 0.125000 0.500000
vt 0.375000 0.500000
vt 0.125000 0.750000
vt 0.625000 0.625000
vt 0.875000 0.625000
vt 0.875000 0.750000
vt 0.500000 0.500000
vt 0.501740 0.534394
vt 0.509558 0.567934
vt 0.527951 0.597049
vt 0.557066 0.615442
vt 0.590606 0.623260
vt 0.625000 0.623260
vt 0.875000 0.623260
vt 0.625000 0.615442
vt 0.875000 0.615442
vt 0.625000 0.500000
vt 0.875000 0.500000
vt 0.625000 0.250000
vt 0.509558 0.500000
vt 0.509558 0.250000
vt 0.501740 0.500000
vt 0.501740 0.250000
s 0
usemtl Material
f 6/1/1 5/2/1 14/3/1 16/4/1 17/5/1 18/6/1 19/7/1 20/8/1 15/9/1 4/10/1
f 3/11/2 2/12/2 5/13/2 6/14/2
f 4/15/3 1/16/3 3/11/3 6/17/3
f 8/18/4 14/19/4 5/20/4 2/12/4
f 1/16/5 7/21/5 9/22/5 10/23/5 11/24/5 12/25/5 13/26/5 8/18/5 2/12/5 3/11/5
f 14/19/6 8/18/6 13/27/6 16/28/6
f 16/28/7 13/27/7 12/29/7 17/30/7
f 17/30/8 12/29/8 11/31/8 18/32/8
f 18/33/9 11/31/9 10/34/9 19/35/9
f 19/35/10 10/34/10 9/36/10 20/37/10
f 20/37/11 9/36/11 7/21/11 15/9/11
f 4/10/12 15/9/12 7/21/12 1/16/12
