# Blender 4.3.2
# www.blender.org
mtllib mycastle_firebowl.mtl
o Cube
v 0.500000 0.500000 -0.500000
v 0.500000 0.363732 -0.500000
v 0.500000 0.500000 0.500000
v 0.500000 0.363732 0.500000
v -0.500000 0.500000 -0.500000
v -0.500000 0.363732 -0.500000
v -0.500000 0.500000 0.500000
v -0.500000 0.363732 0.500000
vn -0.0000 1.0000 -0.0000
vn -0.0000 -0.0000 1.0000
vn -1.0000 -0.0000 -0.0000
vn -0.0000 -1.0000 -0.0000
vn 1.0000 -0.0000 -0.0000
vn -0.0000 -0.0000 -1.0000
vt 1.019057 0.006310
vt 1.019057 1.019084
vt 0.006282 1.019084
vt 0.006283 0.006310
vt 2.566748 2.232631
vt 2.428740 2.232631
vt 2.428740 1.219856
vt 2.566749 1.219856
vt 2.704757 2.232631
vt 2.566749 2.232631
vt 2.566749 1.219856
vt 2.704757 1.219856
vt 1.019057 1.019084
vt 1.019057 2.031859
vt 0.006282 2.031859
vt 0.006283 1.019084
vt 2.842766 2.232631
vt 2.704757 1.219856
vt 2.842766 1.219856
vt 2.967579 1.219856
vt 2.829571 1.219856
vt 2.829571 0.207082
vt 2.967579 0.207082
s 0
usemtl Material
f 1/1/1 5/2/1 7/3/1 3/4/1
f 4/5/2 3/6/2 7/7/2 8/8/2
f 8/9/3 7/10/3 5/11/3 6/12/3
f 6/13/4 2/14/4 4/15/4 8/16/4
f 2/17/5 1/9/5 3/18/5 4/19/5
f 6/20/6 5/21/6 1/22/6 2/23/6
o Cube.001
v 0.399296 0.364437 -0.399296
v 0.399296 0.235915 -0.399296
v 0.399296 0.364437 0.399296
v 0.399296 0.235915 0.399296
v -0.399296 0.364437 -0.399296
v -0.399296 0.235915 -0.399296
v -0.399296 0.364437 0.399296
v -0.399296 0.235915 0.399296
vn -0.0000 1.0000 -0.0000
vn -0.0000 -0.0000 1.0000
vn -1.0000 -0.0000 -0.0000
vn -0.0000 -1.0000 -0.0000
vn 1.0000 -0.0000 -0.0000
vn -0.0000 -0.0000 -1.0000
vt 1.827850 1.631742
vt 1.827850 2.440535
vt 1.019057 2.440535
vt 1.019057 1.631742
vt 2.766807 0.815103
vt 2.636644 0.815103
vt 2.636644 0.006310
vt 2.766807 0.006310
vt 2.689066 3.041424
vt 2.558903 3.041424
vt 2.558903 2.232631
vt 2.689066 2.232631
vt 2.636644 0.006310
vt 2.636644 0.815103
vt 1.827850 0.815103
vt 1.827850 0.006310
vt 2.834920 3.041424
vt 2.704757 3.041424
vt 2.704757 2.232631
vt 2.834920 2.232631
vt 3.097743 1.015875
vt 2.967579 1.015875
vt 2.967579 0.207082
vt 3.097743 0.207082
s 0
usemtl Material
f 9/24/7 13/25/7 15/26/7 11/27/7
f 12/28/8 11/29/8 15/30/8 16/31/8
f 16/32/9 15/33/9 13/34/9 14/35/9
f 14/36/10 10/37/10 12/38/10 16/39/10
f 10/40/11 9/41/11 11/42/11 12/43/11
f 14/44/12 13/45/12 9/46/12 10/47/12
o Cube.002
v 0.298592 0.236620 -0.294718
v 0.298592 0.108098 -0.294718
v 0.298592 0.236620 0.302465
v 0.298592 0.108098 0.302465
v -0.294718 0.236620 -0.294718
v -0.294718 0.108098 -0.294718
v -0.294718 0.236620 0.302465
v -0.294718 0.108098 0.302465
vn -0.0000 1.0000 -0.0000
vn -0.0000 -0.0000 1.0000
vn -1.0000 -0.0000 -0.0000
vn -0.0000 -1.0000 -0.0000
vn 1.0000 -0.0000 -0.0000
vn -0.0000 -0.0000 -1.0000
vt 0.607172 2.636671
vt 0.006282 2.636671
vt 0.006282 2.031859
vt 0.607172 2.031859
vt 1.279384 3.041424
vt 1.149220 3.041424
vt 1.149221 2.440535
vt 1.279384 2.440535
vt 0.997661 3.041425
vt 0.867498 3.041425
vt 0.867498 2.436613
vt 0.997661 2.436613
vt 2.428740 2.637384
vt 1.827851 2.637384
vt 1.827851 2.032572
vt 2.428740 2.032572
vt 1.149220 3.045347
vt 1.019057 3.045347
vt 1.019057 2.440536
vt 1.149220 2.440536
vt 1.539710 3.041424
vt 1.409547 3.041424
vt 1.409547 2.440535
vt 1.539710 2.440535
s 0
usemtl Material
f 17/48/13 21/49/13 23/50/13 19/51/13
f 20/52/14 19/53/14 23/54/14 24/55/14
f 24/56/15 23/57/15 21/58/15 22/59/15
f 22/60/16 18/61/16 20/62/16 24/63/16
f 18/64/17 17/65/17 19/66/17 20/67/17
f 22/68/18 21/69/18 17/70/18 18/71/18
o Cube.003
v 0.403169 -0.367606 -0.403169
v 0.403169 -0.496127 -0.403169
v 0.403169 -0.367606 0.399296
v 0.403169 -0.496127 0.399296
v -0.395423 -0.367606 -0.403169
v -0.395423 -0.496127 -0.403169
v -0.395423 -0.367606 0.399296
v -0.395423 -0.496127 0.399296
vn -0.0000 1.0000 -0.0000
vn -0.0000 -0.0000 1.0000
vn -1.0000 -0.0000 -0.0000
vn -0.0000 -1.0000 -0.0000
vn 1.0000 -0.0000 -0.0000
vn -0.0000 -0.0000 -1.0000
vt 1.827851 0.819026
vt 1.019057 0.819026
vt 1.019057 0.006310
vt 1.827851 0.006310
vt 2.558903 3.041424
vt 2.428740 3.041424
vt 2.428740 2.232631
vt 2.558903 2.232631
vt 2.972929 2.032572
vt 2.842766 2.032572
vt 2.842766 1.219856
vt 2.972929 1.219856
vt 1.827850 1.631742
vt 1.019057 1.631742
vt 1.019057 0.819026
vt 1.827850 0.819026
vt 2.972929 2.845289
vt 2.842766 2.845289
vt 3.103092 2.028650
vt 2.972929 2.028650
vt 2.972929 1.219856
vt 3.103092 1.219856
s 0
usemtl Material
f 25/72/19 29/73/19 31/74/19 27/75/19
f 28/76/20 27/77/20 31/78/20 32/79/20
f 32/80/21 31/81/21 29/82/21 30/83/21
f 30/84/22 26/85/22 28/86/22 32/87/22
f 26/88/23 25/89/23 27/81/23 28/80/23
f 30/90/24 29/91/24 25/92/24 26/93/24
o Cube.004
v 0.298592 -0.235915 -0.298591
v 0.298592 -0.364437 -0.298591
v 0.298592 -0.235915 0.302465
v 0.298592 -0.364437 0.302465
v -0.294718 -0.235915 -0.298591
v -0.294718 -0.364437 -0.298591
v -0.294718 -0.235915 0.302465
v -0.294718 -0.364437 0.302465
vn -0.0000 1.0000 -0.0000
vn -0.0000 -0.0000 1.0000
vn -1.0000 -0.0000 -0.0000
vn -0.0000 -1.0000 -0.0000
vn 1.0000 -0.0000 -0.0000
vn -0.0000 -0.0000 -1.0000
vt 2.428740 1.423838
vt 1.827851 1.423838
vt 1.827851 0.815103
vt 2.428740 0.815103
vt 1.409547 3.041424
vt 1.279383 3.041424
vt 1.279384 2.440535
vt 1.409547 2.440535
vt 0.737335 3.045347
vt 0.607172 3.045347
vt 0.607172 2.436613
vt 0.737335 2.436613
vt 2.428740 2.032572
vt 1.827851 2.032572
vt 0.867498 3.045347
vt 0.737335 3.045347
vt 0.737335 2.436613
vt 0.867498 2.436613
vt 1.669873 3.041424
vt 1.539710 3.041424
vt 1.539710 2.440535
vt 1.669873 2.440535
s 0
usemtl Material
f 33/94/25 37/95/25 39/96/25 35/97/25
f 36/98/26 35/99/26 39/100/26 40/101/26
f 40/102/27 39/103/27 37/104/27 38/105/27
f 38/106/28 34/107/28 36/95/28 40/94/28
f 34/108/29 33/109/29 35/110/29 36/111/29
f 38/112/30 37/113/30 33/114/30 34/115/30
o Cube.005
v 0.197887 -0.104225 -0.197887
v 0.197887 -0.232747 -0.197887
v 0.197887 -0.104225 0.201761
v 0.197887 -0.232747 0.201761
v -0.197887 -0.104225 -0.197887
v -0.197887 -0.232747 -0.197887
v -0.197887 -0.104225 0.201761
v -0.197887 -0.232747 0.201761
vn -0.0000 1.0000 -0.0000
vn -0.0000 -0.0000 1.0000
vn -1.0000 -0.0000 -0.0000
vn -0.0000 -1.0000 -0.0000
vn 1.0000 -0.0000 -0.0000
vn -0.0000 -0.0000 -1.0000
vt 1.008002 2.436612
vt 0.607172 2.436612
vt 0.607172 2.031859
vt 1.008002 2.031859
vt 0.266609 3.037502
vt 0.136446 3.037501
vt 0.136446 2.636671
vt 0.266609 2.636671
vt 1.800036 2.845288
vt 1.669873 2.845288
vt 1.669873 2.440535
vt 1.800036 2.440535
vt 2.829571 1.219856
vt 2.428740 1.219856
vt 2.428740 0.815103
vt 2.829571 0.815103
vt 0.136446 3.041424
vt 0.006282 3.041424
vt 0.006282 2.636671
vt 0.396772 3.037501
vt 0.266609 3.037501
vt 0.266609 2.636671
vt 0.396772 2.636671
s 0
usemtl Material
f 41/116/31 45/117/31 47/118/31 43/119/31
f 44/120/32 43/121/32 47/122/32 48/123/32
f 48/124/33 47/125/33 45/126/33 46/127/33
f 46/128/34 42/129/34 44/130/34 48/131/34
f 42/132/35 41/133/35 43/134/35 44/122/35
f 46/135/36 45/136/36 41/137/36 42/138/36
o Cube.006
v 0.101056 0.108803 -0.097183
v 0.101056 -0.104930 -0.097183
v 0.101056 0.108803 0.097183
v 0.101056 -0.104930 0.097183
v -0.093310 0.108803 -0.097183
v -0.093310 -0.104930 -0.097183
v -0.093310 0.108803 0.097183
v -0.093310 -0.104930 0.097183
vn -0.0000 1.0000 -0.0000
vn -0.0000 -0.0000 1.0000
vn -1.0000 -0.0000 -0.0000
vn -0.0000 -1.0000 -0.0000
vn 1.0000 -0.0000 -0.0000
vn -0.0000 -0.0000 -1.0000
vt 2.963656 0.006310
vt 2.963656 0.203159
vt 2.766807 0.203159
vt 2.766807 0.006310
vt 0.396772 2.853134
vt 0.396772 2.636671
vt 0.593621 2.636671
vt 0.593621 2.853134
vt 2.024700 2.853847
vt 2.024700 2.637384
vt 2.221549 2.637384
vt 2.221549 2.853847
vt 3.039615 2.845289
vt 3.039615 3.042138
vt 2.842766 3.042138
vt 2.842766 2.845289
vt 2.418398 2.637384
vt 2.418398 2.853847
vt 1.827851 2.853847
vt 1.827851 2.637384
s 0
usemtl Material
f 49/139/37 53/140/37 55/141/37 51/142/37
f 52/143/38 51/144/38 55/145/38 56/146/38
f 56/147/39 55/148/39 53/149/39 54/150/39
f 54/151/40 50/152/40 52/153/40 56/154/40
f 50/150/41 49/149/41 51/155/41 52/156/41
f 54/157/42 53/158/42 49/148/42 50/147/42
