# Blender 4.3.2
# www.blender.org
mtllib mycastle_table.mtl
o Cube
v 0.500000 0.500000 -0.002312
v 0.002312 0.500000 -0.500000
v 0.475641 0.500000 -0.156106
v 0.404950 0.500000 -0.294846
v 0.294846 0.500000 -0.404950
v 0.156106 0.500000 -0.475641
v 0.002312 0.377305 -0.500000
v 0.500000 0.377305 -0.002312
v 0.156106 0.377305 -0.475641
v 0.294846 0.377305 -0.404950
v 0.404950 0.377305 -0.294846
v 0.475641 0.377305 -0.156106
v 0.002312 0.500000 0.500000
v 0.500000 0.500000 0.002312
v 0.156106 0.500000 0.475641
v 0.294846 0.500000 0.404950
v 0.404950 0.500000 0.294846
v 0.475641 0.500000 0.156106
v 0.500000 0.377305 0.002312
v 0.002312 0.377305 0.500000
v 0.475641 0.377305 0.156106
v 0.404950 0.377305 0.294846
v 0.294846 0.377305 0.404950
v 0.156106 0.377305 0.475641
v -0.002312 0.500000 -0.500000
v -0.500000 0.500000 -0.002312
v -0.156106 0.500000 -0.475641
v -0.294846 0.500000 -0.404950
v -0.404950 0.500000 -0.294846
v -0.475641 0.500000 -0.156106
v -0.500000 0.377305 -0.002312
v -0.002312 0.377305 -0.500000
v -0.475641 0.377305 -0.156106
v -0.404950 0.377305 -0.294846
v -0.294846 0.377305 -0.404950
v -0.156106 0.377305 -0.475641
v -0.500000 0.500000 0.002312
v -0.002312 0.500000 0.500000
v -0.475641 0.500000 0.156106
v -0.404950 0.500000 0.294846
v -0.294846 0.500000 0.404950
v -0.156106 0.500000 0.475641
v -0.002312 0.377305 0.500000
v -0.500000 0.377305 0.002312
v -0.156106 0.377305 0.475641
v -0.294846 0.377305 0.404950
v -0.404950 0.377305 0.294846
v -0.475641 0.377305 0.156106
vn -0.0000 -1.0000 -0.0000
vn -1.0000 -0.0000 -0.0000
vn -0.0000 -0.0000 1.0000
vn -0.0000 1.0000 -0.0000
vn 1.0000 -0.0000 -0.0000
vn 0.9877 -0.0000 -0.1564
vn 0.8910 -0.0000 -0.4540
vn 0.7071 -0.0000 -0.7071
vn 0.4540 -0.0000 -0.8910
vn 0.1564 -0.0000 -0.9877
vn -0.1564 -0.0000 0.9877
vn -0.4540 -0.0000 0.8910
vn -0.7071 -0.0000 0.7071
vn -0.8910 -0.0000 0.4540
vn -0.9877 -0.0000 0.1564
vn 0.1564 -0.0000 0.9877
vn 0.4540 -0.0000 0.8910
vn 0.7071 -0.0000 0.7071
vn 0.8910 -0.0000 0.4540
vn 0.9877 -0.0000 0.1564
vn -0.1564 -0.0000 -0.9877
vn -0.4540 -0.0000 -0.8910
vn -0.7071 -0.0000 -0.7071
vn -0.8910 -0.0000 -0.4540
vn -0.9877 -0.0000 -0.1564
vn -0.0000 -0.0000 -1.0000
vt 1.561491 0.995578
vt 1.406073 0.995579
vt 1.258263 0.947552
vt 1.132528 0.856200
vt 1.041176 0.730465
vt 0.993149 0.582654
vt 0.992427 0.578095
vt 0.992427 0.422678
vt 1.040454 0.274867
vt 1.131806 0.149132
vt 1.257541 0.057780
vt 1.405352 0.009753
vt 1.409910 0.009031
vt 1.565328 0.009031
vt 1.713138 0.057058
vt 1.838874 0.148410
vt 1.930226 0.274145
vt 1.978252 0.421956
vt 1.978974 0.426515
vt 1.978974 0.581932
vt 1.930948 0.729743
vt 1.839596 0.855478
vt 1.713860 0.946830
vt 1.566049 0.994856
vt 2.871755 2.760968
vt 2.749290 2.760968
vt 2.749290 2.756352
vt 2.871755 2.756352
vt 2.871755 2.172389
vt 2.749291 2.172389
vt 2.749291 2.167773
vt 2.871755 2.167773
vt 1.561491 1.982125
vt 1.406073 1.982125
vt 1.258263 1.934099
vt 1.132528 1.842747
vt 1.041176 1.717011
vt 0.993149 1.569201
vt 0.992427 1.564642
vt 0.992427 1.409225
vt 1.040454 1.261414
vt 1.131806 1.135679
vt 1.257541 1.044327
vt 1.405352 0.996300
vt 1.409910 0.995578
vt 1.565328 0.995578
vt 1.713138 1.043605
vt 1.838873 1.134957
vt 1.930225 1.260692
vt 1.978252 1.408503
vt 1.978974 1.413062
vt 1.978974 1.568479
vt 1.930948 1.716290
vt 1.839595 1.842025
vt 1.713860 1.933377
vt 1.566049 1.981403
vt 1.703470 2.388619
vt 1.581006 2.388619
vt 1.581006 2.384004
vt 1.703470 2.384004
vt 1.703470 2.542123
vt 1.581006 2.542123
vt 1.703470 2.680601
vt 1.581006 2.680601
vt 1.703470 2.790498
vt 1.581006 2.790498
vt 2.871755 1.765895
vt 2.994219 1.765895
vt 2.994219 1.904373
vt 2.871755 1.904373
vt 2.994219 2.057877
vt 2.871755 2.057877
vt 2.749291 2.014269
vt 2.871755 2.014269
vt 2.749291 1.875792
vt 2.871755 1.875792
vt 2.749291 1.765895
vt 2.871755 3.052949
vt 2.749290 3.052949
vt 2.749290 2.914472
vt 2.871755 2.914472
vt 2.871755 2.325893
vt 2.749291 2.325893
vt 2.871755 2.464371
vt 2.749291 2.464371
vt 1.581006 1.982125
vt 1.703470 1.982125
vt 1.703470 2.092022
vt 1.581006 2.092022
vt 1.703470 2.230500
vt 1.581006 2.230500
vt 2.871755 2.062492
vt 2.994219 2.062492
vt 2.994219 2.215996
vt 2.871755 2.215996
vt 2.994219 2.354474
vt 2.871755 2.354474
vt 2.994219 2.464371
vt 2.871755 2.602848
vt 2.749290 2.602848
s 0
usemtl Material
f 31/1/1 33/2/1 34/3/1 35/4/1 36/5/1 32/6/1 7/7/1 9/8/1 10/9/1 11/10/1 12/11/1 8/12/1 19/13/1 21/14/1 22/15/1 23/16/1 24/17/1 20/18/1 43/19/1 45/20/1 46/21/1 47/22/1 48/23/1 44/24/1
f 44/25/2 37/26/2 26/27/2 31/28/2
f 20/29/3 13/30/3 38/31/3 43/32/3
f 1/33/4 3/34/4 4/35/4 5/36/4 6/37/4 2/38/4 25/39/4 27/40/4 28/41/4 29/42/4 30/43/4 26/44/4 37/45/4 39/46/4 40/47/4 41/48/4 42/49/4 38/50/4 13/51/4 15/52/4 16/53/4 17/54/4 18/55/4 14/56/4
f 8/57/5 1/58/5 14/59/5 19/60/5
f 1/58/6 8/57/6 12/61/6 3/62/6
f 3/62/7 12/61/7 11/63/7 4/64/7
f 4/64/8 11/63/8 10/65/8 5/66/8
f 5/67/9 10/68/9 9/69/9 6/70/9
f 6/70/10 9/69/10 7/71/10 2/72/10
f 43/32/11 38/31/11 42/73/11 45/74/11
f 45/74/12 42/73/12 41/75/12 46/76/12
f 46/76/13 41/75/13 40/77/13 47/67/13
f 47/78/14 40/79/14 39/80/14 48/81/14
f 48/81/15 39/80/15 37/26/15 44/25/15
f 13/30/16 20/29/16 24/82/16 15/83/16
f 15/83/17 24/82/17 23/84/17 16/85/17
f 16/86/18 23/87/18 22/88/18 17/89/18
f 17/89/19 22/88/19 21/90/19 18/91/19
f 18/91/20 21/90/20 19/60/20 14/59/20
f 25/92/21 32/93/21 36/94/21 27/95/21
f 27/95/22 36/94/22 35/96/22 28/97/22
f 28/97/23 35/96/23 34/98/23 29/84/23
f 29/85/24 34/84/24 33/99/24 30/100/24
f 30/100/25 33/99/25 31/28/25 26/27/25
f 32/93/26 25/92/26 2/72/26 7/71/26
o Cube.001
v 0.106113 0.374688 -0.028268
v 0.006576 0.374688 -0.127806
v 0.101242 0.374688 -0.059027
v 0.087103 0.374688 -0.086775
v 0.065083 0.374688 -0.108796
v 0.037335 0.374688 -0.122934
v 0.006576 -0.397084 -0.127806
v 0.106113 -0.397084 -0.028268
v 0.037335 -0.397084 -0.122934
v 0.065083 -0.397084 -0.108796
v 0.087103 -0.397084 -0.086775
v 0.101242 -0.397084 -0.059027
v 0.006576 0.374688 0.072194
v 0.106113 0.374688 -0.027343
v 0.037335 0.374688 0.067323
v 0.065083 0.374688 0.053185
v 0.087103 0.374688 0.031164
v 0.101242 0.374688 0.003416
v 0.106113 -0.397084 -0.027343
v 0.006576 -0.397084 0.072194
v 0.101242 -0.397084 0.003416
v 0.087103 -0.397084 0.031164
v 0.065083 -0.397084 0.053185
v 0.037335 -0.397084 0.067323
v 0.005651 0.374688 -0.127806
v -0.093887 0.374688 -0.028268
v -0.025108 0.374688 -0.122934
v -0.052856 0.374688 -0.108796
v -0.074877 0.374688 -0.086775
v -0.089015 0.374688 -0.059027
v -0.093887 -0.397084 -0.028268
v 0.005651 -0.397084 -0.127806
v -0.089015 -0.397084 -0.059027
v -0.074877 -0.397084 -0.086775
v -0.052856 -0.397084 -0.108796
v -0.025108 -0.397084 -0.122934
v -0.093887 0.374688 -0.027343
v 0.005651 0.374688 0.072194
v -0.089015 0.374688 0.003416
v -0.074877 0.374688 0.031164
v -0.052856 0.374688 0.053185
v -0.025108 0.374688 0.067323
v 0.005651 -0.397084 0.072194
v -0.093887 -0.397084 -0.027343
v -0.025108 -0.397084 0.067323
v -0.052856 -0.397084 0.053185
v -0.074877 -0.397084 0.031164
v -0.089015 -0.397084 0.003416
vn -0.0000 -1.0000 -0.0000
vn -1.0000 -0.0000 -0.0000
vn -0.0000 -0.0000 1.0000
vn -0.0000 1.0000 -0.0000
vn 1.0000 -0.0000 -0.0000
vn 0.9877 -0.0000 -0.1564
vn 0.8910 -0.0000 -0.4540
vn 0.7071 -0.0000 -0.7071
vn 0.4540 -0.0000 -0.8910
vn 0.1564 -0.0000 -0.9877
vn -0.1564 -0.0000 0.9877
vn -0.4540 -0.0000 0.8910
vn -0.7071 -0.0000 0.7071
vn -0.8910 -0.0000 0.4540
vn -0.9877 -0.0000 0.1564
vn 0.1564 -0.0000 0.9877
vn 0.4540 -0.0000 0.8910
vn 0.7071 -0.0000 0.7071
vn 0.8910 -0.0000 0.4540
vn 0.9877 -0.0000 0.1564
vn -0.1564 -0.0000 -0.9877
vn -0.4540 -0.0000 -0.8910
vn -0.7071 -0.0000 -0.7071
vn -0.8910 -0.0000 -0.4540
vn -0.9877 -0.0000 -0.1564
vn -0.0000 -0.0000 -1.0000
vt 0.574944 0.995578
vt 0.419526 0.995578
vt 0.271716 0.947552
vt 0.145981 0.856200
vt 0.054629 0.730465
vt 0.006602 0.582654
vt 0.005880 0.578095
vt 0.005880 0.422678
vt 0.053907 0.274867
vt 0.145259 0.149132
vt 0.270994 0.057780
vt 0.418805 0.009753
vt 0.423363 0.009031
vt 0.578781 0.009031
vt 0.726591 0.057058
vt 0.852327 0.148410
vt 0.943678 0.274145
vt 0.991705 0.421956
vt 0.992427 0.426515
vt 0.992427 0.581932
vt 0.944401 0.729743
vt 0.853048 0.855478
vt 0.727313 0.946830
vt 0.579503 0.994856
vt 1.284409 2.752442
vt 1.284409 1.982126
vt 1.289024 1.982126
vt 1.289024 2.752442
vt 2.749291 1.402072
vt 1.978974 1.402072
vt 1.978974 1.397457
vt 2.749291 1.397457
vt 0.574944 1.982125
vt 0.419526 1.982125
vt 0.271716 1.934099
vt 0.145981 1.842747
vt 0.054629 1.717011
vt 0.006602 1.569201
vt 0.005880 1.564642
vt 0.005880 1.409225
vt 0.053907 1.261414
vt 0.145259 1.135679
vt 0.270994 1.044327
vt 0.418805 0.996300
vt 0.423363 0.995578
vt 0.578781 0.995578
vt 0.726591 1.043605
vt 0.852327 1.134957
vt 0.943678 1.260692
vt 0.991705 1.408503
vt 0.992427 1.413062
vt 0.992427 1.568479
vt 0.944400 1.716290
vt 0.853048 1.842025
vt 0.727313 1.933377
vt 0.579503 1.981403
vt 3.041272 1.765895
vt 3.041272 0.995578
vt 3.045888 0.995578
vt 3.045888 1.765895
vt 2.887769 1.765895
vt 2.887769 0.995578
vt 2.749290 1.765895
vt 2.749290 0.995578
vt 1.978974 1.803951
vt 2.749291 1.803951
vt 2.749291 1.913847
vt 1.978974 1.913847
vt 2.749291 2.052325
vt 1.978974 2.052325
vt 2.749291 2.205829
vt 1.978974 2.205829
vt 1.978974 1.243953
vt 2.749291 1.243953
vt 1.978974 1.105475
vt 2.749291 1.105475
vt 1.978974 0.995578
vt 2.749291 0.995578
vt 0.992427 2.752442
vt 0.992427 1.982126
vt 1.130905 1.982126
vt 1.130905 2.752442
vt 2.749291 1.555576
vt 1.978974 1.555576
vt 2.749291 1.694054
vt 1.978974 1.694054
vt 2.749291 1.803951
vt 1.978974 1.803951
vt 3.337870 0.995578
vt 3.337870 1.765895
vt 3.199392 1.765895
vt 3.199392 0.995578
vt 1.978974 2.210444
vt 2.749291 2.210444
vt 2.749291 2.363948
vt 1.978974 2.363948
vt 2.749291 2.502426
vt 1.978974 2.502426
vt 2.749291 2.612323
vt 1.978974 2.612323
vt 1.581006 1.982126
vt 1.581006 2.752442
vt 1.442528 2.752442
vt 1.442528 1.982126
s 0
usemtl Material
f 79/101/27 81/102/27 82/103/27 83/104/27 84/105/27 80/106/27 55/107/27 57/108/27 58/109/27 59/110/27 60/111/27 56/112/27 67/113/27 69/114/27 70/115/27 71/116/27 72/117/27 68/118/27 91/119/27 93/120/27 94/121/27 95/122/27 96/123/27 92/124/27
f 92/125/28 85/126/28 74/127/28 79/128/28
f 68/129/29 61/130/29 86/131/29 91/132/29
f 49/133/30 51/134/30 52/135/30 53/136/30 54/137/30 50/138/30 73/139/30 75/140/30 76/141/30 77/142/30 78/143/30 74/144/30 85/145/30 87/146/30 88/147/30 89/148/30 90/149/30 86/150/30 61/151/30 63/152/30 64/153/30 65/154/30 66/155/30 62/156/30
f 56/157/31 49/158/31 62/159/31 67/160/31
f 49/158/32 56/157/32 60/161/32 51/162/32
f 51/162/33 60/161/33 59/163/33 52/164/33
f 52/165/34 59/166/34 58/167/34 53/168/34
f 53/168/35 58/167/35 57/169/35 54/170/35
f 54/170/36 57/169/36 55/171/36 50/172/36
f 91/132/37 86/131/37 90/173/37 93/174/37
f 93/174/38 90/173/38 89/175/38 94/176/38
f 94/176/39 89/175/39 88/177/39 95/178/39
f 95/179/40 88/180/40 87/181/40 96/182/40
f 96/182/41 87/181/41 85/126/41 92/125/41
f 61/130/42 68/129/42 72/183/42 63/184/42
f 63/184/43 72/183/43 71/185/43 64/186/43
f 64/186/44 71/185/44 70/187/44 65/188/44
f 65/189/45 70/190/45 69/191/45 66/192/45
f 66/192/46 69/191/46 67/160/46 62/159/46
f 73/193/47 80/194/47 84/195/47 75/196/47
f 75/196/48 84/195/48 83/197/48 76/198/48
f 76/198/49 83/197/49 82/199/49 77/200/49
f 77/201/50 82/202/50 81/203/50 78/204/50
f 78/204/51 81/203/51 79/128/51 74/127/51
f 80/194/52 73/193/52 50/172/52 55/171/52
o Cube.002
v 0.304556 -0.393405 -0.022489
v 0.005943 -0.393405 -0.321102
v 0.289940 -0.393405 -0.114765
v 0.247526 -0.393405 -0.198009
v 0.181463 -0.393405 -0.264072
v 0.098219 -0.393405 -0.306487
v 0.005943 -0.500311 -0.321102
v 0.304556 -0.500311 -0.022489
v 0.098219 -0.500311 -0.306487
v 0.181463 -0.500311 -0.264072
v 0.247526 -0.500311 -0.198009
v 0.289940 -0.500311 -0.114765
v 0.005943 -0.393405 0.278898
v 0.304556 -0.393405 -0.019714
v 0.098219 -0.393405 0.264283
v 0.181463 -0.393405 0.221868
v 0.247526 -0.393405 0.155806
v 0.289940 -0.393405 0.072562
v 0.304556 -0.500311 -0.019714
v 0.005943 -0.500311 0.278898
v 0.289940 -0.500311 0.072562
v 0.247526 -0.500311 0.155806
v 0.181463 -0.500311 0.221868
v 0.098219 -0.500311 0.264283
v 0.003168 -0.393405 -0.321102
v -0.295445 -0.393405 -0.022489
v -0.089108 -0.393405 -0.306487
v -0.172352 -0.393405 -0.264072
v -0.238415 -0.393405 -0.198009
v -0.280829 -0.393405 -0.114765
v -0.295445 -0.500311 -0.022489
v 0.003168 -0.500311 -0.321102
v -0.280829 -0.500311 -0.114765
v -0.238415 -0.500311 -0.198009
v -0.172352 -0.500311 -0.264072
v -0.089108 -0.500311 -0.306487
v -0.295445 -0.393405 -0.019714
v 0.003168 -0.393405 0.278898
v -0.280829 -0.393405 0.072562
v -0.238415 -0.393405 0.155806
v -0.172352 -0.393405 0.221868
v -0.089108 -0.393405 0.264283
v 0.003168 -0.500311 0.278898
v -0.295445 -0.500311 -0.019714
v -0.089108 -0.500311 0.264283
v -0.172352 -0.500311 0.221868
v -0.238415 -0.500311 0.155806
v -0.280829 -0.500311 0.072562
vn -0.0000 -1.0000 -0.0000
vn -1.0000 -0.0000 -0.0000
vn -0.0000 -0.0000 1.0000
vn -0.0000 1.0000 -0.0000
vn 1.0000 -0.0000 -0.0000
vn 0.9877 -0.0000 -0.1564
vn 0.8910 -0.0000 -0.4540
vn 0.7071 -0.0000 -0.7071
vn 0.4540 -0.0000 -0.8910
vn 0.1564 -0.0000 -0.9877
vn -0.1564 -0.0000 0.9877
vn -0.4540 -0.0000 0.8910
vn -0.7071 -0.0000 0.7071
vn -0.8910 -0.0000 0.4540
vn -0.9877 -0.0000 0.1564
vn 0.1564 -0.0000 0.9877
vn 0.4540 -0.0000 0.8910
vn 0.7071 -0.0000 0.7071
vn 0.8910 -0.0000 0.4540
vn 0.9877 -0.0000 0.1564
vn -0.1564 -0.0000 -0.9877
vn -0.4540 -0.0000 -0.8910
vn -0.7071 -0.0000 -0.7071
vn -0.8910 -0.0000 -0.4540
vn -0.9877 -0.0000 -0.1564
vn -0.0000 -0.0000 -1.0000
vt 0.574944 2.968672
vt 0.419526 2.968672
vt 0.271716 2.920646
vt 0.145981 2.829294
vt 0.054629 2.703559
vt 0.006602 2.555748
vt 0.005880 2.551189
vt 0.005880 2.395772
vt 0.053907 2.247961
vt 0.145259 2.122226
vt 0.270994 2.030874
vt 0.418805 1.982847
vt 0.423363 1.982126
vt 0.578781 1.982126
vt 0.726591 2.030152
vt 0.852327 2.121504
vt 0.943678 2.247240
vt 0.991705 2.395050
vt 0.992427 2.399609
vt 0.992427 2.555026
vt 0.944401 2.702837
vt 0.853048 2.828572
vt 0.727313 2.919924
vt 0.579503 2.967950
vt 2.978458 2.760968
vt 2.871755 2.760968
vt 2.871755 2.756352
vt 2.978458 2.756352
vt 1.810174 2.388619
vt 1.703470 2.388619
vt 1.703470 2.384004
vt 1.810174 2.384004
vt 2.548038 0.995578
vt 2.392621 0.995578
vt 2.244810 0.947552
vt 2.119074 0.856200
vt 2.027722 0.730465
vt 1.979696 0.582654
vt 1.978974 0.578095
vt 1.978974 0.422678
vt 2.027000 0.274867
vt 2.118352 0.149132
vt 2.244088 0.057780
vt 2.391899 0.009753
vt 2.396457 0.009031
vt 2.551875 0.009031
vt 2.699685 0.057058
vt 2.825420 0.148410
vt 2.916772 0.274145
vt 2.964799 0.421956
vt 2.965521 0.426515
vt 2.965521 0.581932
vt 2.917494 0.729743
vt 2.826142 0.855478
vt 2.700407 0.946830
vt 2.552596 0.994856
vt 3.072225 0.305629
vt 2.965521 0.305629
vt 2.965521 0.301013
vt 3.072225 0.301013
vt 3.072225 0.459133
vt 2.965521 0.459133
vt 3.072225 0.597610
vt 2.965521 0.597610
vt 1.810174 1.982125
vt 1.916878 1.982125
vt 1.916878 2.092022
vt 1.810174 2.092022
vt 1.916878 2.230500
vt 1.810174 2.230500
vt 1.916878 2.384004
vt 1.810174 2.384004
vt 1.703470 2.230500
vt 1.810174 2.230500
vt 1.703470 2.092022
vt 1.810174 2.092022
vt 1.703470 1.982125
vt 1.810174 1.982125
vt 2.978458 3.052949
vt 2.871755 3.052949
vt 2.871755 2.914472
vt 2.978458 2.914472
vt 1.810174 2.542123
vt 1.703470 2.542123
vt 1.810174 2.680601
vt 1.703470 2.680601
vt 1.810174 2.790498
vt 1.703470 2.790498
vt 2.965521 0.009031
vt 3.072225 0.009031
vt 3.072225 0.147509
vt 2.965521 0.147509
vt 1.810174 2.388619
vt 1.916878 2.388619
vt 1.916878 2.542123
vt 1.810174 2.542123
vt 1.916878 2.680601
vt 1.916877 2.790498
vt 2.871755 2.464371
vt 2.978458 2.464371
vt 2.978458 2.602848
vt 2.871755 2.602848
s 0
usemtl Material
f 127/205/53 129/206/53 130/207/53 131/208/53 132/209/53 128/210/53 103/211/53 105/212/53 106/213/53 107/214/53 108/215/53 104/216/53 115/217/53 117/218/53 118/219/53 119/220/53 120/221/53 116/222/53 139/223/53 141/224/53 142/225/53 143/226/53 144/227/53 140/228/53
f 140/229/54 133/230/54 122/231/54 127/232/54
f 116/233/55 109/234/55 134/235/55 139/236/55
f 97/237/56 99/238/56 100/239/56 101/240/56 102/241/56 98/242/56 121/243/56 123/244/56 124/245/56 125/246/56 126/247/56 122/248/56 133/249/56 135/250/56 136/251/56 137/252/56 138/253/56 134/254/56 109/255/56 111/256/56 112/257/56 113/258/56 114/259/56 110/260/56
f 104/261/57 97/262/57 110/263/57 115/264/57
f 97/262/58 104/261/58 108/265/58 99/266/58
f 99/266/59 108/265/59 107/267/59 100/268/59
f 100/269/60 107/270/60 106/271/60 101/272/60
f 101/272/61 106/271/61 105/273/61 102/274/61
f 102/274/62 105/273/62 103/275/62 98/276/62
f 139/236/63 134/235/63 138/277/63 141/278/63
f 141/278/64 138/277/64 137/279/64 142/280/64
f 142/280/65 137/279/65 136/281/65 143/282/65
f 143/283/66 136/284/66 135/285/66 144/286/66
f 144/286/67 135/285/67 133/230/67 140/229/67
f 109/234/68 116/233/68 120/287/68 111/288/68
f 111/288/69 120/287/69 119/289/69 112/290/69
f 112/290/70 119/289/70 118/291/70 113/292/70
f 113/293/71 118/294/71 117/295/71 114/296/71
f 114/296/72 117/295/72 115/264/72 110/263/72
f 121/297/73 128/298/73 132/299/73 123/300/73
f 123/300/74 132/299/74 131/301/74 124/289/74
f 124/289/75 131/301/75 130/302/75 125/291/75
f 125/303/76 130/304/76 129/305/76 126/306/76
f 126/306/77 129/305/77 127/232/77 122/231/77
f 128/298/78 121/297/78 98/276/78 103/275/78
