# Blender 4.3.2
# www.blender.org
mtllib fence2.mtl
o Cube
v 0.356452 0.503687 0.429533
v 0.356452 -0.496313 0.429533
v 0.406452 0.503687 0.429533
v 0.406452 -0.496313 0.429533
v 0.356452 0.503687 0.479533
v 0.356452 -0.496313 0.479533
v 0.406452 0.503687 0.479533
v 0.406452 -0.496313 0.479533
vn -0.0000 1.0000 -0.0000
vn 1.0000 -0.0000 -0.0000
vn -0.0000 -0.0000 1.0000
vn -0.0000 -1.0000 -0.0000
vn -0.0000 -0.0000 -1.0000
vn -1.0000 -0.0000 -0.0000
vt 0.625000 0.500000
vt 0.875000 0.500000
vt 0.875000 0.750000
vt 0.625000 0.750000
vt 0.200000 1.000000
vt 0.200000 0.000000
vt 0.250000 0.000000
vt 0.250000 1.000000
vt 0.375000 0.000000
vt 0.625000 0.000000
vt 0.625000 0.250000
vt 0.375000 0.250000
vt 0.125000 0.500000
vt 0.375000 0.500000
vt 0.375000 0.750000
vt 0.125000 0.750000
s 0
usemtl Material
f 1/1/1 5/2/1 7/3/1 3/4/1
f 4/5/2 3/6/2 7/7/2 8/8/2
f 8/9/3 7/10/3 5/11/3 6/12/3
f 6/13/4 2/14/4 4/15/4 8/16/4
f 2/14/5 1/1/5 3/4/5 4/15/5
f 6/12/6 5/11/6 1/1/6 2/14/6
o Cube.001
v 0.100540 0.503687 0.429533
v 0.100540 -0.496313 0.429533
v 0.150540 0.503687 0.429533
v 0.150540 -0.496313 0.429533
v 0.100540 0.503687 0.479533
v 0.100540 -0.496313 0.479533
v 0.150540 0.503687 0.479533
v 0.150540 -0.496313 0.479533
vn -0.0000 1.0000 -0.0000
vn 1.0000 -0.0000 -0.0000
vn -0.0000 -0.0000 1.0000
vn -0.0000 -1.0000 -0.0000
vn -0.0000 -0.0000 -1.0000
vn -1.0000 -0.0000 -0.0000
vt 0.625000 0.500000
vt 0.875000 0.500000
vt 0.875000 0.750000
vt 0.625000 0.750000
vt 0.250000 1.000000
vt 0.250000 0.000000
vt 0.300000 0.000000
vt 0.300000 1.000000
vt 0.375000 0.000000
vt 0.625000 0.000000
vt 0.625000 0.250000
vt 0.375000 0.250000
vt 0.125000 0.500000
vt 0.375000 0.500000
vt 0.375000 0.750000
vt 0.125000 0.750000
s 0
usemtl Material
f 9/17/7 13/18/7 15/19/7 11/20/7
f 12/21/8 11/22/8 15/23/8 16/24/8
f 16/25/9 15/26/9 13/27/9 14/28/9
f 14/29/10 10/30/10 12/31/10 16/32/10
f 10/30/11 9/17/11 11/20/11 12/31/11
f 14/28/12 13/27/12 9/17/12 10/30/12
o Cube.002
v -0.145594 0.503687 0.429533
v -0.145594 -0.496313 0.429533
v -0.095594 0.503687 0.429533
v -0.095594 -0.496313 0.429533
v -0.145594 0.503687 0.479533
v -0.145594 -0.496313 0.479533
v -0.095594 0.503687 0.479533
v -0.095594 -0.496313 0.479533
vn -0.0000 1.0000 -0.0000
vn 1.0000 -0.0000 -0.0000
vn -0.0000 -0.0000 1.0000
vn -0.0000 -1.0000 -0.0000
vn -0.0000 -0.0000 -1.0000
vn -1.0000 -0.0000 -0.0000
vt 0.625000 0.500000
vt 0.875000 0.500000
vt 0.875000 0.750000
vt 0.625000 0.750000
vt 0.300000 1.000000
vt 0.300000 0.000000
vt 0.350000 0.000000
vt 0.350000 1.000000
vt 0.375000 0.000000
vt 0.625000 0.000000
vt 0.625000 0.250000
vt 0.375000 0.250000
vt 0.125000 0.500000
vt 0.375000 0.500000
vt 0.375000 0.750000
vt 0.125000 0.750000
s 0
usemtl Material
f 17/33/13 21/34/13 23/35/13 19/36/13
f 20/37/14 19/38/14 23/39/14 24/40/14
f 24/41/15 23/42/15 21/43/15 22/44/15
f 22/45/16 18/46/16 20/47/16 24/48/16
f 18/46/17 17/33/17 19/36/17 20/47/17
f 22/44/18 21/43/18 17/33/18 18/46/18
o Cube.003
v -0.388304 0.507873 0.429533
v -0.388304 -0.492127 0.429533
v -0.338304 0.507873 0.429533
v -0.338304 -0.492127 0.429533
v -0.388304 0.507873 0.479533
v -0.388304 -0.492127 0.479533
v -0.338304 0.507873 0.479533
v -0.338304 -0.492127 0.479533
vn -0.0000 1.0000 -0.0000
vn 1.0000 -0.0000 -0.0000
vn -0.0000 -0.0000 1.0000
vn -0.0000 -1.0000 -0.0000
vn -0.0000 -0.0000 -1.0000
vn -1.0000 -0.0000 -0.0000
vt 0.625000 0.500000
vt 0.875000 0.500000
vt 0.875000 0.750000
vt 0.625000 0.750000
vt 0.350000 1.000000
vt 0.350000 0.000000
vt 0.400000 0.000000
vt 0.400000 1.000000
vt 0.375000 0.000000
vt 0.625000 0.000000
vt 0.625000 0.250000
vt 0.375000 0.250000
vt 0.125000 0.500000
vt 0.375000 0.500000
vt 0.375000 0.750000
vt 0.125000 0.750000
s 0
usemtl Material
f 25/49/19 29/50/19 31/51/19 27/52/19
f 28/53/20 27/54/20 31/55/20 32/56/20
f 32/57/21 31/58/21 29/59/21 30/60/21
f 30/61/22 26/62/22 28/63/22 32/64/22
f 26/62/23 25/49/23 27/52/23 28/63/23
f 30/60/24 29/59/24 25/49/24 26/62/24
o Cube.004
v 0.505017 0.303687 0.372476
v -0.494983 0.303687 0.372476
v 0.505017 0.253687 0.372476
v -0.494983 0.253687 0.372476
v 0.505017 0.303687 0.422476
v -0.494983 0.303687 0.422476
v 0.505017 0.253687 0.422476
v -0.494983 0.253687 0.422476
vn 1.0000 -0.0000 -0.0000
vn -0.0000 -1.0000 -0.0000
vn -0.0000 -0.0000 1.0000
vn -1.0000 -0.0000 -0.0000
vn -0.0000 -0.0000 -1.0000
vn -0.0000 1.0000 -0.0000
vt 0.625000 0.500000
vt 0.875000 0.500000
vt 0.875000 0.750000
vt 0.625000 0.750000
vt 0.400000 1.000000
vt 0.400000 0.000000
vt 0.450000 0.000000
vt 0.450000 1.000000
vt 0.375000 0.000000
vt 0.625000 0.000000
vt 0.625000 0.250000
vt 0.375000 0.250000
vt 0.125000 0.500000
vt 0.375000 0.500000
vt 0.375000 0.750000
vt 0.125000 0.750000
s 0
usemtl Material
f 33/65/25 37/66/25 39/67/25 35/68/25
f 36/69/26 35/70/26 39/71/26 40/72/26
f 40/73/27 39/74/27 37/75/27 38/76/27
f 38/77/28 34/78/28 36/79/28 40/80/28
f 34/78/29 33/65/29 35/68/29 36/79/29
f 38/76/30 37/75/30 33/65/30 34/78/30
o Cube.005
v 0.510814 -0.252769 0.378272
v -0.489186 -0.252769 0.378272
v 0.510814 -0.302769 0.378272
v -0.489186 -0.302769 0.378272
v 0.510814 -0.252769 0.428272
v -0.489186 -0.252769 0.428272
v 0.510814 -0.302769 0.428272
v -0.489186 -0.302769 0.428272
vn 1.0000 -0.0000 -0.0000
vn -0.0000 -1.0000 -0.0000
vn -0.0000 -0.0000 1.0000
vn -1.0000 -0.0000 -0.0000
vn -0.0000 -0.0000 -1.0000
vn -0.0000 1.0000 -0.0000
vt 0.500000 0.100000
vt 0.450000 0.100000
vt 0.450000 0.050000
vt 0.500000 0.050000
vt 0.000000 1.000000
vt 0.000000 0.000000
vt 0.050000 0.000000
vt 0.050000 1.000000
vt 0.100000 0.000000
vt 0.100000 1.000000
vt 0.500000 0.000000
vt 0.500000 0.050000
vt 0.450000 0.050000
vt 0.450000 0.000000
vt 0.150000 0.000000
vt 0.150000 1.000000
vt 0.200000 0.000000
vt 0.200000 1.000000
s 0
usemtl Material
f 41/81/31 45/82/31 47/83/31 43/84/31
f 44/85/32 43/86/32 47/87/32 48/88/32
f 48/88/33 47/87/33 45/89/33 46/90/33
f 46/91/34 42/92/34 44/93/34 48/94/34
f 42/90/35 41/89/35 43/95/35 44/96/35
f 46/96/36 45/95/36 41/97/36 42/98/36
